<?xml version="1.0" standalone="no"?>
<!DOCTYPE svg PUBLIC "-//W3C//DTD SVG 20010904//EN"
 "http://www.w3.org/TR/2001/REC-SVG-20010904/DTD/svg10.dtd">
<svg version="1.0" xmlns="http://www.w3.org/2000/svg"
 width="431.000000pt" height="431.000000pt" viewBox="0 0 431.000000 431.000000"
 preserveAspectRatio="xMidYMid meet">
<metadata>
Created by potrace 1.14, written by Peter Selinger 2001-2017
</metadata>
<g transform="translate(0.000000,431.000000) scale(0.100000,-0.100000)"
fill="#000000" stroke="none">
<path d="M2073 4138 l-71 -172 -128 -22 c-269 -45 -454 -113 -676 -251 -77
-48 -127 -85 -270 -202 l-29 -25 -145 145 c-88 88 -144 137 -144 126 0 -22 -9
-21 -39 2 -18 14 -22 24 -18 42 6 20 -9 40 -99 130 l-106 106 99 13 c153 20
158 23 93 45 -72 23 -278 105 -408 162 -57 24 -105 43 -107 41 -2 -1 44 -120
102 -263 57 -143 109 -271 114 -284 5 -13 12 -21 15 -18 3 3 11 55 17 116 l12
111 273 -273 272 -272 -50 -60 c-116 -136 -218 -302 -288 -465 -68 -161 -105
-302 -138 -536 -4 -30 -11 -34 -122 -79 -64 -26 -142 -58 -172 -70 l-55 -23
35 -16 c19 -9 96 -40 170 -70 130 -52 135 -55 142 -88 4 -18 16 -88 27 -156
27 -157 87 -335 161 -482 73 -142 86 -161 99 -140 8 12 12 13 23 2 11 -11 10
-16 -4 -26 -16 -12 -14 -19 31 -82 27 -38 74 -98 104 -133 l56 -64 -35 -33
-34 -34 -118 0 c-64 1 -136 5 -159 9 -39 8 -44 6 -77 -28 -20 -20 -36 -40 -36
-43 0 -16 232 -39 247 -25 12 12 33 7 33 -7 0 -22 -116 -31 -229 -18 l-96 10
-39 -38 -39 -38 39 -11 c21 -7 87 -14 146 -18 59 -3 105 -9 103 -14 -9 -14
-150 -20 -240 -10 l-89 11 -33 -32 c-18 -18 -33 -35 -33 -40 0 -13 79 -29 184
-38 95 -8 91 -8 -66 -7 l-168 2 -32 -32 c-17 -18 -29 -35 -26 -39 15 -14 92
-25 219 -31 l137 -6 5 -141 c2 -78 10 -159 17 -180 l12 -39 38 39 c38 38 38
40 30 89 -11 60 -11 220 -1 255 5 16 10 -15 13 -85 4 -60 12 -127 20 -148 l13
-37 37 37 37 38 -11 70 c-11 75 -5 242 10 257 6 6 11 -36 14 -104 3 -62 12
-128 19 -146 l14 -33 37 38 c35 37 36 40 28 83 -11 55 -12 238 -1 265 5 12 10
-13 14 -71 7 -100 25 -194 36 -194 4 0 20 14 37 31 l29 30 -3 162 -4 162 36
34 35 34 43 -39 c250 -229 629 -397 988 -439 l55 -6 69 -175 c39 -96 73 -177
76 -179 4 -3 38 72 75 165 38 94 71 174 75 179 3 6 54 17 114 26 349 52 646
188 923 422 l50 42 34 -35 c33 -34 34 -37 37 -132 2 -54 -1 -122 -6 -152 -11
-55 -11 -55 26 -92 20 -21 39 -35 43 -30 13 13 29 124 29 201 0 57 3 72 12 63
13 -13 17 -200 5 -272 -7 -43 -5 -48 27 -85 19 -21 37 -37 40 -35 12 14 27 96
33 183 4 63 10 94 16 88 6 -6 8 -73 5 -168 l-4 -158 30 -32 c16 -18 32 -33 36
-33 10 0 29 101 38 201 l7 84 6 -65 c3 -36 2 -110 -3 -165 l-9 -100 38 -34 37
-35 13 50 c8 27 17 109 20 182 l6 132 88 0 c90 0 234 16 257 29 9 5 2 17 -23
41 l-35 34 -168 -1 c-167 -1 -167 -1 -59 8 101 8 187 24 187 34 0 3 -15 20
-32 39 l-33 34 -122 -10 c-67 -6 -120 -15 -117 -20 3 -4 -2 -8 -10 -8 -20 0
-30 17 -14 23 7 3 -6 6 -29 6 -72 2 -61 21 12 21 78 0 206 18 220 31 6 6 -3
22 -25 43 l-35 34 -101 -10 c-90 -9 -243 -4 -231 8 2 3 56 9 120 14 63 5 127
14 142 20 l28 11 -37 38 c-36 36 -38 37 -84 30 -26 -4 -99 -8 -163 -8 l-115
-1 -33 34 -33 34 66 77 c225 264 376 601 417 931 l12 100 174 70 c95 38 173
71 173 74 0 3 -77 37 -172 75 l-172 70 -13 95 c-15 110 -54 274 -90 375 -63
176 -195 404 -318 548 l-63 74 273 273 c307 307 278 294 291 133 3 -51 10 -93
13 -93 9 0 235 559 229 565 -2 2 -74 -25 -159 -61 -85 -36 -203 -84 -264 -106
-60 -22 -117 -42 -125 -45 -22 -8 17 -17 134 -33 l98 -13 -278 -278 -277 -277
-78 68 c-256 226 -622 387 -965 425 l-61 7 -69 174 c-38 95 -74 174 -80 174
-6 0 -43 -77 -81 -172z m-1963 38 c-14 -14 -24 0 -16 21 6 15 8 15 16 3 6 -9
5 -19 0 -24z m208 -152 c-4 -3 -12 5 -18 18 -12 22 -12 22 6 6 10 -10 15 -20
12 -24z m2172 -193 c532 -117 967 -458 1196 -936 320 -666 177 -1448 -358
-1961 -241 -231 -524 -378 -859 -446 -98 -20 -143 -23 -324 -22 -231 0 -318
13 -514 76 -512 163 -927 577 -1097 1095 -61 188 -78 303 -78 528 0 178 3 214
27 326 65 306 200 576 403 804 46 52 100 106 119 121 22 17 34 33 30 41 -8 22
4 36 19 23 10 -7 23 -2 52 21 111 90 305 200 448 253 96 36 238 74 342 91 134
22 468 14 594 -14z m-1836 -170 c3 -5 -5 -11 -19 -13 -24 -5 -32 2 -18 15 9
10 31 9 37 -2z m-164 -875 c0 -3 -4 -8 -10 -11 -5 -3 -10 -1 -10 4 0 6 5 11
10 11 6 0 10 -2 10 -4z m1980 -2353 c0 -20 -3 -24 -11 -16 -7 7 -9 19 -6 27
10 24 17 19 17 -11z"/>
<path d="M2020 3644 c-310 -37 -586 -149 -798 -322 l-43 -35 153 -154 c84 -84
157 -152 163 -150 5 2 10 17 10 33 0 23 4 28 19 26 33 -6 48 5 36 27 -7 13 -7
28 0 45 6 17 6 26 0 26 -6 0 -10 4 -10 10 0 5 6 7 14 4 14 -5 17 0 31 61 l7
30 19 -42 c10 -24 23 -43 29 -43 6 0 8 -10 4 -24 -7 -28 12 -70 27 -60 7 4 7
-1 0 -15 -20 -37 3 -89 33 -78 11 5 14 -4 11 -40 -2 -25 -8 -50 -14 -56 -6 -6
-11 -18 -11 -26 0 -8 3 -11 7 -8 3 4 13 1 21 -6 12 -9 16 -9 19 1 3 6 8 10 12
8 4 -3 6 8 5 23 -2 25 1 27 29 23 25 -4 29 -2 24 12 -4 9 -10 23 -13 31 -3 8
-2 15 4 15 6 0 9 11 7 25 -1 16 3 25 11 25 12 0 15 15 14 55 0 3 5 12 12 19
15 16 28 3 28 -31 0 -12 7 -26 16 -31 12 -6 15 -17 11 -32 -7 -29 10 -63 28
-56 11 4 11 0 0 -21 -17 -33 -9 -55 19 -48 11 2 15 2 9 -1 -18 -8 -16 -31 2
-31 8 0 12 4 9 9 -3 4 -1 8 4 8 14 0 22 -26 11 -37 -5 -5 -11 -20 -14 -32 -2
-12 -7 -31 -10 -41 -6 -20 18 -50 42 -50 8 0 17 9 20 20 3 11 9 20 14 20 17 0
9 27 -16 55 -25 26 -25 27 -7 43 19 17 23 47 8 70 -4 8 -1 12 10 12 14 0 15 2
3 18 -12 15 -12 16 2 4 17 -13 77 -13 85 0 3 4 1 8 -4 8 -13 0 -24 62 -13 73
5 5 7 16 4 23 -3 8 1 14 8 14 9 1 8 4 -3 11 -10 5 -18 17 -18 26 0 12 3 13 15
3 21 -18 32 -5 38 46 2 26 9 49 14 53 6 3 12 13 15 21 4 10 11 4 21 -20 8 -19
13 -38 11 -42 -3 -5 0 -8 6 -8 6 0 9 -4 5 -9 -3 -5 5 -17 17 -25 19 -14 21
-19 12 -58 -9 -39 -8 -46 12 -67 19 -21 25 -22 38 -11 22 18 20 4 -5 -30 -22
-30 -20 -68 3 -54 9 5 8 2 -1 -9 -18 -23 -8 -33 12 -12 9 8 18 15 21 15 11 0
6 -22 -9 -37 -23 -22 -12 -27 29 -12 30 11 36 18 36 41 0 25 4 28 31 28 26 0
30 3 24 18 -13 29 -6 84 12 97 7 6 14 22 15 38 1 15 6 27 10 27 4 0 11 1 15 3
3 1 8 -9 10 -23 2 -14 10 -30 19 -37 10 -7 13 -19 9 -32 -8 -26 12 -64 31 -57
11 4 11 1 -2 -19 -9 -13 -14 -30 -11 -37 3 -8 8 -4 14 11 6 16 12 20 17 13 11
-18 49 -15 43 2 -3 8 -1 17 6 19 8 3 4 13 -11 29 -20 23 -21 26 -6 32 11 4 15
14 12 31 -5 22 -2 25 22 25 34 0 42 8 30 31 -7 11 -7 27 0 43 6 17 6 26 0 26
-6 0 -10 4 -10 10 0 5 7 7 15 4 10 -4 16 3 20 23 4 15 10 37 14 48 7 17 9 15
20 -17 7 -20 18 -39 25 -41 8 -3 12 -15 9 -30 -6 -29 14 -70 28 -61 8 4 8 0 0
-13 -10 -20 -11 -63 -1 -63 3 0 12 6 19 13 11 10 13 9 8 -5 -4 -10 -4 -18 -2
-18 7 0 295 289 295 295 0 11 -54 54 -136 110 -157 107 -352 188 -542 226 -94
18 -345 32 -422 23z m140 -13 c0 -18 -18 -21 -30 -6 -10 13 -9 15 9 15 11 0
21 -4 21 -9z m377 -83 c-3 -8 -6 -5 -6 6 -1 11 2 17 5 13 3 -3 4 -12 1 -19z
m-597 -54 c0 -8 -5 -12 -10 -9 -6 4 -8 11 -5 16 9 14 15 11 15 -7z m-334 -125
c4 -8 1 -8 -14 0 -12 6 -24 16 -28 22 -4 8 -1 8 14 0 12 -6 24 -16 28 -22z
m1104 -55 c0 -8 -4 -14 -9 -14 -11 0 -22 26 -14 34 9 9 23 -3 23 -20z m-671
-231 c1 -1 0 -7 -4 -13 -9 -14 -35 6 -35 27 0 13 3 13 18 2 9 -7 19 -14 21
-16z m-329 -73 c0 -5 -5 -10 -11 -10 -5 0 -7 5 -4 10 3 6 8 10 11 10 2 0 4 -4
4 -10z"/>
<path d="M967 3058 c-74 -102 -99 -143 -145 -234 -40 -80 -98 -232 -91 -238 2
-2 137 -33 299 -70 572 -130 550 -124 550 -152 0 -14 -11 -46 -24 -72 -13 -26
-41 -92 -62 -147 -38 -100 -38 -100 -42 -275 -2 -96 -2 -193 0 -215 l3 -40
273 273 273 273 -485 484 c-267 267 -487 485 -490 485 -3 0 -30 -33 -59 -72z
m-37 -297 c0 -5 -7 -11 -15 -15 -15 -5 -20 5 -8 17 9 10 23 9 23 -2z m-85 -41
c-5 -8 -11 -8 -17 -2 -6 6 -7 16 -3 22 5 8 11 8 17 2 6 -6 7 -16 3 -22z"/>
<path d="M2790 2645 l-485 -485 301 -301 301 -300 2 72 c3 102 11 100 11 -2
l0 -84 179 -179 179 -179 26 29 c46 51 146 206 185 289 53 110 97 237 123 358
32 147 32 446 0 593 -39 179 -106 352 -187 479 -51 80 -135 195 -143 195 -4 0
-225 -218 -492 -485z m490 -44 c0 -6 -4 -13 -10 -16 -5 -3 -10 1 -10 9 0 9 5
16 10 16 6 0 10 -4 10 -9z m-263 -17 c-3 -3 -12 -4 -19 -1 -8 3 -5 6 6 6 11 1
17 -2 13 -5z m-106 -37 c-10 -9 -11 -8 -5 6 3 10 9 15 12 12 3 -3 0 -11 -7
-18z m473 9 c-3 -8 -12 -12 -20 -9 -17 6 -9 23 11 23 8 0 12 -6 9 -14z m-344
-76 c0 -5 -2 -10 -4 -10 -3 0 -8 5 -11 10 -3 6 -1 10 4 10 6 0 11 -4 11 -10z
m7 -199 c-1 -13 -6 -20 -14 -17 -8 3 -13 -2 -13 -14 0 -11 -4 -20 -9 -20 -5 0
-12 -8 -14 -17 -2 -10 -3 -3 -1 14 1 19 -3 39 -12 47 -10 10 -11 17 -3 22 8 4
7 9 -2 15 -10 6 -8 9 9 9 14 0 22 6 22 16 0 13 5 10 19 -8 11 -14 19 -35 18
-47z m-310 -43 c-3 -8 -6 -5 -6 6 -1 11 2 17 5 13 3 -3 4 -12 1 -19z m143 -68
c0 -5 -5 -10 -11 -10 -5 0 -7 5 -4 10 3 6 8 10 11 10 2 0 4 -4 4 -10z m107
-12 c-3 -8 -6 -5 -6 6 -1 11 2 17 5 13 3 -3 4 -12 1 -19z m-227 -18 c0 -5 -2
-10 -4 -10 -3 0 -8 5 -11 10 -3 6 -1 10 4 10 6 0 11 -4 11 -10z m217 -32 c-3
-8 -6 -5 -6 6 -1 11 2 17 5 13 3 -3 4 -12 1 -19z m213 -8 c0 -5 -5 -10 -11
-10 -5 0 -7 5 -4 10 3 6 8 10 11 10 2 0 4 -4 4 -10z m-223 -42 c-3 -8 -6 -5
-6 6 -1 11 2 17 5 13 3 -3 4 -12 1 -19z m-13 -67 c-4 -17 -9 -30 -11 -27 -3 2
-2 19 2 36 9 41 17 33 9 -9z m63 17 c-3 -8 -6 -5 -6 6 -1 11 2 17 5 13 3 -3 4
-12 1 -19z m-80 -105 c-3 -10 -5 -4 -5 12 0 17 2 24 5 18 2 -7 2 -21 0 -30z
m533 -23 c0 -5 -5 -10 -11 -10 -5 0 -7 5 -4 10 3 6 8 10 11 10 2 0 4 -4 4 -10z
m-543 -87 c-2 -16 -4 -5 -4 22 0 28 2 40 4 28 2 -13 2 -35 0 -50z m386 28
c-16 -16 -29 -25 -31 -20 -2 4 -12 3 -22 -3 -32 -20 -35 0 -5 24 56 45 102 44
58 -1z"/>
<path d="M2355 2821 c-3 -6 1 -11 9 -11 19 0 19 -1 6 -34 -5 -14 -8 -26 -6
-26 3 0 10 -2 18 -5 21 -8 20 50 -1 70 -13 11 -21 13 -26 6z"/>
<path d="M1755 2790 c-3 -5 -1 -10 4 -10 6 0 11 5 11 10 0 6 -2 10 -4 10 -3 0
-8 -4 -11 -10z"/>
<path d="M711 2514 c0 -11 3 -14 6 -6 3 7 2 16 -1 19 -3 4 -6 -2 -5 -13z"/>
<path d="M692 2438 c-5 -24 -5 -47 0 -52 11 -14 10 -28 -2 -21 -5 3 -10 1 -10
-4 0 -14 6 -14 32 0 12 6 18 7 14 1 -7 -12 16 -22 50 -22 19 0 24 5 25 28 2
27 2 27 6 2 6 -30 19 -40 56 -40 19 0 26 4 21 12 -4 6 -3 8 4 4 5 -3 13 0 16
6 3 7 3 3 1 -8 -5 -18 1 -24 27 -33 20 -7 34 -8 36 -2 2 5 12 1 23 -10 25 -25
43 -24 36 1 -3 13 0 20 8 20 8 0 15 -12 17 -26 2 -17 11 -30 26 -35 21 -8 23
-6 16 13 -6 20 -5 21 10 6 9 -9 16 -21 16 -27 0 -10 79 -61 94 -61 8 0 4 24
-10 67 -5 15 -4 15 5 3 9 -12 11 -11 12 10 1 20 3 18 9 -10 l7 -35 8 33 c4 18
10 31 12 28 3 -3 0 -28 -7 -57 l-13 -52 34 -28 34 -28 6 42 6 42 1 -47 c2 -43
6 -49 54 -90 29 -23 49 -36 46 -28 -18 48 -20 62 -8 55 8 -5 11 -2 7 11 -3 11
-13 73 -22 139 -10 66 -20 123 -24 126 -3 4 -19 9 -35 13 -27 7 -28 5 -22 -19
4 -16 3 -24 -3 -21 -5 4 -12 -2 -14 -11 -3 -12 -5 -8 -6 9 -1 32 -25 58 -52
58 -16 0 -19 -8 -21 -47 l-1 -48 -6 50 c-5 42 -10 51 -28 53 -27 4 -27 6 -8
-48 8 -24 13 -45 11 -47 -2 -2 -12 20 -22 49 -18 52 -18 52 -25 23 l-7 -30 -1
31 c-1 29 -4 32 -38 36 -21 3 -39 4 -41 3 -1 -1 -6 -22 -11 -46 -8 -41 -9 -42
-10 -11 -1 18 -6 42 -11 53 -11 20 -40 26 -40 8 0 -5 -4 -8 -9 -5 -5 4 -12 0
-14 -6 -3 -8 -6 -6 -6 5 -1 10 -5 16 -10 13 -5 -4 -11 -1 -13 5 -2 6 -27 13
-55 14 -29 2 -56 6 -62 9 -5 4 -12 -2 -14 -11 -4 -17 -5 -17 -6 0 0 10 -5 16
-10 12 -5 -3 -12 -1 -16 5 -3 5 -19 10 -35 10 -26 0 -30 -4 -38 -42z m168 -38
c11 -22 18 -40 15 -40 -2 0 -14 18 -25 40 -11 22 -18 40 -15 40 2 0 14 -18 25
-40z m107 -52 c-2 -13 -4 -5 -4 17 -1 22 1 32 4 23 2 -10 2 -28 0 -40z m52
-13 c0 -5 -6 1 -14 15 -8 14 -14 30 -14 35 0 6 6 -1 14 -15 8 -14 14 -29 14
-35z m51 20 c0 -5 -5 -3 -10 5 -5 8 -10 20 -10 25 0 6 5 3 10 -5 5 -8 10 -19
10 -25z m207 -7 c-3 -8 -6 -5 -6 6 -1 11 2 17 5 13 3 -3 4 -12 1 -19z m-150
-45 c-3 -10 -5 -2 -5 17 0 19 2 27 5 18 2 -10 2 -26 0 -35z m-37 2 c0 -5 -5
-3 -10 5 -5 8 -10 20 -10 25 0 6 5 3 10 -5 5 -8 10 -19 10 -25z m177 3 c-3 -8
-6 -5 -6 6 -1 11 2 17 5 13 3 -3 4 -12 1 -19z m72 -23 c0 -5 -4 -3 -9 5 -5 8
-9 22 -9 30 0 16 17 -16 18 -35z m-32 -47 c-2 -13 -4 -3 -4 22 0 25 2 35 4 23
2 -13 2 -33 0 -45z m87 -108 c5 -20 3 -19 -8 5 -7 17 -16 41 -20 55 -5 20 -3
19 8 -5 7 -16 16 -41 20 -55z"/>
<path d="M1390 2358 c1 -7 9 -65 19 -128 l19 -115 3 100 3 100 6 -130 c3 -80
8 -122 13 -110 61 152 66 169 55 189 -10 18 -9 19 4 9 12 -11 17 -7 31 23 23
48 22 51 -24 59 -48 8 -54 4 -39 -27 11 -22 10 -22 -4 -3 -31 40 -37 45 -61
45 -14 0 -25 -6 -25 -12z"/>
<path d="M673 2317 c-4 -6 0 -8 11 -4 9 4 25 2 35 -5 20 -12 56 -4 46 11 -7
13 -84 11 -92 -2z"/>
<path d="M769 2304 c-11 -14 -10 -16 6 -13 11 1 28 -1 37 -5 9 -4 26 -2 38 4
13 7 20 8 16 2 -8 -13 26 -41 55 -44 13 -2 26 -5 29 -9 3 -3 22 -13 43 -23 32
-15 41 -15 55 -4 15 12 16 11 3 -4 -11 -15 -10 -19 13 -29 20 -10 29 -9 43 2
16 13 17 12 5 -3 -11 -14 -10 -18 6 -27 11 -6 23 -7 27 -3 5 4 5 2 1 -5 -9
-17 14 -28 25 -12 7 11 9 11 9 1 0 -20 28 -44 41 -36 8 4 9 3 5 -5 -4 -6 0
-14 11 -18 10 -4 26 -17 36 -30 22 -27 43 -29 71 -6 21 17 20 17 0 -7 -32 -37
-21 -50 39 -49 l52 2 -40 7 c-31 6 -34 7 -12 9 15 0 27 5 27 10 0 5 -22 26
-50 47 -27 21 -50 42 -50 46 0 4 -7 8 -15 8 -8 0 -15 5 -15 10 0 6 -10 15 -22
20 -24 10 -60 31 -68 40 -17 18 -65 41 -89 43 -16 1 -27 5 -25 9 6 10 -84 50
-96 43 -6 -3 -10 -1 -10 5 0 7 -6 10 -14 7 -7 -3 -19 0 -25 6 -6 6 -11 8 -11
4 0 -3 -19 0 -41 8 -54 19 -93 19 -110 -1z m444 -164 c3 -11 1 -20 -4 -20 -5
0 -9 9 -9 20 0 11 2 20 4 20 2 0 6 -9 9 -20z m99 -92 c-7 -7 -12 -8 -12 -2 0
6 3 14 7 17 3 4 9 5 12 2 2 -3 -1 -11 -7 -17z"/>
<path d="M673 2113 c6 -195 28 -314 86 -470 54 -145 150 -315 240 -423 l29
-35 145 146 144 146 1 84 c1 46 5 155 8 242 l7 158 -29 30 c-83 88 -304 216
-441 257 -105 32 -146 42 -172 42 l-24 0 6 -177z"/>
<path d="M1661 1516 l-483 -483 29 -21 c29 -21 30 -21 61 -2 28 17 32 25 32
63 0 50 13 67 51 67 15 0 32 7 40 16 7 9 31 28 54 44 24 17 49 45 60 69 11 26
25 41 36 41 12 0 27 17 42 46 l24 47 54 -87 c53 -86 54 -87 87 -81 28 5 34 3
39 -14 3 -12 10 -18 20 -14 9 4 16 -2 20 -15 9 -36 31 -13 48 53 12 45 23 65
36 68 14 4 19 14 19 37 0 28 5 34 40 47 34 14 41 21 46 52 9 55 12 61 33 61
15 0 25 17 47 80 18 53 30 76 36 68 4 -7 19 -48 32 -90 31 -98 117 -217 155
-214 21 1 27 -6 38 -46 11 -36 26 -57 63 -88 28 -23 50 -48 50 -56 0 -8 10
-14 24 -14 19 0 27 -8 37 -37 17 -56 17 -55 57 -24 20 17 49 33 65 36 21 6 27
13 27 34 1 14 16 55 34 91 l34 65 12 -43 c9 -34 14 -41 24 -33 11 9 16 2 25
-34 10 -40 14 -45 34 -40 19 5 26 0 40 -30 11 -24 31 -42 61 -57 37 -17 49
-30 65 -71 l21 -49 27 21 c53 39 63 48 63 56 0 10 -957 965 -967 965 -4 0
-226 -218 -492 -484z m459 364 c-24 -15 -36 -11 -14 4 10 8 21 12 24 10 2 -3
-2 -9 -10 -14z m89 -236 c-14 -18 -24 -11 -15 11 3 9 11 13 16 10 8 -5 7 -11
-1 -21z"/>
<path d="M2109 1569 c-9 -20 -20 -45 -23 -57 -4 -12 -15 -22 -25 -22 -22 0
-31 -36 -31 -122 l0 -60 -36 27 c-29 22 -38 25 -45 14 -18 -29 -8 -69 41 -157
28 -50 50 -93 50 -95 0 -3 -9 -3 -20 0 -24 6 -25 -5 -5 -53 l14 -35 -28 20
c-44 32 -50 43 -70 140 -10 51 -21 94 -24 97 -3 3 -13 -18 -21 -47 -9 -29 -20
-55 -25 -58 -4 -3 -18 -24 -29 -46 l-21 -40 -1 53 c0 39 -4 52 -15 52 -8 0
-15 5 -15 10 0 16 -23 11 -50 -10 -32 -25 -43 -25 -30 0 8 16 7 27 -7 50 -9
17 -20 30 -23 30 -17 0 -32 -52 -27 -91 5 -38 -16 -120 -27 -108 -2 2 -11 29
-19 60 -12 48 -12 61 0 90 7 18 11 40 7 48 -4 9 -6 32 -5 51 l1 35 -14 -25
c-9 -14 -16 -43 -17 -65 l-2 -40 -10 38 c-6 20 -14 37 -18 37 -4 0 -15 -19
-25 -42 -12 -30 -32 -52 -63 -73 -45 -29 -46 -32 -56 -99 l-10 -69 -30 54 -29
54 -9 -60 c-17 -119 7 -146 203 -238 466 -219 1009 -184 1435 90 l69 45 -43
22 c-37 20 -41 24 -27 35 23 19 20 27 -21 51 l-37 22 -29 -32 -28 -31 6 53 c4
29 8 59 11 66 3 9 -1 10 -15 2 -11 -5 -28 -35 -38 -66 l-19 -56 -26 40 c-25
36 -26 46 -22 118 l5 79 -20 -35 c-11 -19 -20 -52 -21 -72 0 -34 -3 -38 -34
-43 -43 -9 -101 -56 -137 -114 l-29 -45 0 92 c0 91 0 92 -25 92 -18 0 -25 5
-25 19 0 11 -19 36 -44 55 -39 33 -49 36 -104 36 -56 0 -64 3 -92 33 -21 22
-30 40 -28 58 1 15 -9 43 -24 67 -23 34 -28 53 -30 124 l-3 83 -16 -36z m12
-339 c6 0 7 -5 4 -10 -11 -17 -25 0 -24 28 2 24 2 24 6 5 2 -13 9 -23 14 -23z
m202 -140 c4 -4 3 -19 -4 -33 -10 -23 -9 -32 15 -67 24 -37 38 -120 19 -120
-4 0 -27 19 -50 42 -37 37 -43 48 -43 85 0 25 -6 45 -14 50 -7 4 -19 25 -26
46 l-12 38 -46 -38 -47 -38 44 52 44 53 56 -32 c31 -17 60 -34 64 -38z m-823
-60 c5 0 14 -9 20 -20 9 -18 8 -19 -12 -11 -16 6 -24 17 -25 37 -1 16 1 21 3
12 3 -10 9 -18 14 -18z m242 -6 c23 -20 44 -37 46 -39 1 -1 -2 -14 -7 -28 -7
-17 -16 -25 -25 -21 -9 3 -16 -2 -18 -13 -2 -10 -10 12 -17 50 -7 37 -16 67
-19 67 -3 0 -17 -10 -30 -22 l-25 -23 17 33 c9 17 20 32 25 32 5 0 29 -16 53
-36z m985 -71 c26 -23 31 -33 26 -56 -5 -27 -6 -26 -40 28 -37 59 -42 62 -62
43 -11 -11 -11 -9 -2 10 13 25 24 22 78 -25z"/>
<path d="M2308 1332 c-26 -5 -22 -27 9 -52 32 -25 40 -15 21 27 -9 19 -19 28
-30 25z"/>
</g>
</svg>
