<svg xmlns="http://www.w3.org/2000/svg" viewBox="0 0 528 226" width="704" height="226pt"><path d="M0 0h191.36c-3.31 1.06-6.47 1.87-9.17 4.17-4.19 3.04-6.11 7.61-9.96 11.08-9.79 9.45-19.67 20.64-31.32 27.71-4.54 3.5-5.41 10.71-11.03 13.92-7.72 3.79-15.72 6.91-23.96 9.4-3.98 1.31-8.02 2.38-10.38 6.15-5.23 8.52-9.8 16.87-17.1 24-4.61 4.88-9.86 7.7-13.47 13.56-2.84 4.91-6.74 10.76-11.87 13.45-4.74 1.61-10.52 1.53-15.31 4.26-1.66 1.28-2.43 2.98-3.29 4.82-2.68 5.95-5.88 11.58-8.21 17.7-1.7 4.63-3.75 9.45-6.53 13.55-3.64 4.82-9.71 8.84-12.76 14.21-3.84 6.65-5.5 14.27-5.01 21.93.75.65 1.51 1.3 2.26 1.96 2.98-1.16 5.86-2.32 8.28-4.49-2.16-.15-4.33-.24-6.49-.31.11-.66.23-1.32.34-1.97 3.62-1.92 8.35-4.22 9.84-8.31-1.06-.13-2.11-.26-3.17-.4-.31.66-.63 1.32-.94 1.98-1.3-.3-3.07.51-3.25-1.3 1.96-1.45 4.47-2.42 5.86-4.4 2.48-3.11 3.32-6.54 6.57-9 1.48 7.16 6.4 11.08 10.6 16.72-2.37-.9-4.75-1.79-7.17-2.56.54 5.55 7.52 5.7 10.46 9.59-2.69 0-5.39-.12-8.08-.11 2.15 1.55 4.54 2.41 7.03 3.22 2.86-1.89 6.03-1.97 6.01-6.15-2.23-.08-4.46-.17-6.69-.32 2.51-2.46 5.61-3.57 8.6-5.25 1.37-.64 1.62-1.36 2.23-2.67-2.84.64-5.6 1.37-8.54 1.41 1.35-1.59 2.98-2.67 4.79-3.66 1.38-1.58 2.8-3.12 4.28-4.6-1.76.2-3.53.38-5.3.54 1.68-3.06 4.02-5.44 6.26-8.06 2.45-3.63 4.06-7.79 6.45-11.49 2.28 4.49 2.74 9.05 5.92 12.57 2.64 3 5.33 5.97 8.07 8.88-2.48-.72-4.96-1.33-7.54-1.63 1.82 5.23 7.6 5.2 9.68 9.79-2.63-.39-5.19-1.07-7.76-1.74 2.02 3.49 6.3 5.79 9.9 7.34 4.32-.46 7.77-4.3 10.14-7.68 2.49 5.33 5.08 9.62 9.51 13.57-1.7.22-3.39.41-5.04.93 1.35 3.91 7.02 5.98 7.57 10.24-1.86-.69-3.71-1.43-5.54-2.18-.68 4.51 2.01 6.22 4.56 9.33 2.81-.43 6.34-1.52 7.97-4.01 1.01-2.77-4.86-.97-5.02-3.44 5.22-4.37 9.95-8.55 11.28-15.61 3.46 6.7 6.28 13.23 12.7 17.67-.76.63-1.53 1.27-2.3 1.9-1.88-.84-3.76-1.51-5.78-1.93.78 1.7 1.12 3.33 2.82 4.35 2.69 1.72 5.45 4.39 8.6 5.1 3.67-.43 7.36-2.05 10.4-4.13-2.19-.13-4.38-.21-6.57-.28.74-2.78 3.43-3.32 5.54-5 2.88-1.78 5.27-5.54 8.58-6.34 1.06.97 1.87 2.1 2.72 3.25 1.71 1.19 3.45 2.56 5.38 3.38 3.63-1.43 5.91-4.14 8.14-7.21-1.61-.03-3.21-.07-4.82-.11 2.38-2.93 4.77-5.84 7.46-8.49 2.81-2.74 4.64-6.07 7.16-9.05 3.74 6.05 5.95 13.48 11.43 17.86.32.73.62 1.47.88 2.23-2.45-.51-4.85-1.2-7.3-1.69 2.62 4.99 6.36 8.75 11.32 11.43-2.2 2.46-4.76 1.33-7.77 1.81 1.82 1.95 4.06 2.86 6.47 3.82 2.93-1.32 6.15-2.56 8.73-4.5.89-.71.88-2.31 1.25-3.33-3.05-.37-6.23.86-8.25-1.94 4.59-3.6 10.06-6.79 13.77-11.34-2.63.48-5.25.99-7.91 1.24 5.65-5.77 13.01-12.02 16.07-19.68.6-1.21.86-2.24 2.25-2.73 1.2 2.58 2 5.19 3.59 7.6 3.45 5.05 8 8.71 11.75 13.34-3.29.76-5.53-.63-8.43-1.81.5 1.15.75 2.25 1.82 3.02 3.1 2.73 6.57 4.95 9.65 7.7-1.85.48-3.69.96-5.53 1.46.78 3.64 5.08 5.91 8.26 7.12 2.83.14 6.89-1.78 7.54-4.89-3 .35-6.32 1.84-9.32 1.27-.02-1.44 1.72-2.04 2.69-2.89 5.11-3.82 10.32-6.68 12.99-12.74-4.07 1.17-7.8 3.05-11.73 4.81-.42-.62-.84-1.24-1.27-1.86 3.74-2.03 6.7-4.5 9.56-7.62 3.11-3.45 6.65-5.6 8.28-9.99-3.75 1.05-7.5 2.05-11.3 2.92-.12-.6-.24-1.19-.36-1.78 4.79-1.05 7.59-4.33 11.07-7.44 3.18-3.22 5.12-7.4 8.15-10.79 2.79-3.11 3.73-6.92 5.77-10.43 1.9.6 2.03 2.63 2.73 4.26 2.36 6.43 4.37 13.37 8.12 18.99-.1.61-.19 1.21-.29 1.81 3.18.86 5.29 4.03 8.06 5.87-.02.56-.03 1.12-.05 1.68-3.63-1.44-7.21-3-10.82-4.49.2 5.21 4.27 6.74 6.69 10.85 2.77 2.22 5.86 3.88 8.52 6.23-1.35.27-2.7.51-4.05.75-3.16-1.19-6.37-1.83-9.65-2.66.76 1.45 1.2 2.89 2.63 3.84 3.4 2.56 6.63 5.31 10.15 7.7-.43 1.08-.82 2.17-1.18 3.27 1.32 1.32 3.12 2.38 4.93 2.87 2.58-1.53 4.45-3.75 7.32-4.84.38-1.09.74-2.18 1.08-3.28-2.76.1-4.98.19-7.52-1.04 1.79-1 3.59-1.96 5.43-2.84 2.35-1.95 4.08-3.29 4.62-6.53-2.41.61-4.82 1.24-7.27 1.68 1.74-2.78 4.43-3.74 6.89-5.72 2.58-2.03 4.89-4.42 7.14-6.8 2.73-2.78 3.88-7.26 5.41-10.79 4.12 3.25 3.77 8.34 7.27 12 3.59 3.73 5.55 7.77 10.49 9.81l-.09 2.03c-2.81-1.1-5.63-2.13-8.57-2.86 2 5.06 5.81 8.27 9.9 11.6-2.93.5-5.34-.54-8.12-1.25-.47 5.24 4.19 5.85 7.94 7.55 3.2-2.48 6.46-4.64 9-7.87 1.24-1.63 3.2-3.32 3.42-5.41-3.76-.31-6.97.43-10.51-.9 3.31-2.41 6.42-4.86 10.05-6.77 1.52-2.45 3.07-4.62 3.31-7.6-3.64.86-6.78 2.83-10.54 3.33 2.47-3.22 5.95-5.24 8.39-8.5 3.79-4.72 5.74-10.03 8.82-15.18 1.44-2.3 1.88-4.83 2.74-7.35.6.06 1.19.17 1.77.31 1.05 2.27.61 5.12 1.54 7.5 1.44 3.73 3.55 7.16 5.1 10.84 1.88 4.48 5.45 6.87 7.91 11l-.57 1.25c-3.04-.52-5.99-1.76-8.94-2.66 3.02 6.2 8.76 8.12 13.14 12.96-3.06.09-6.13.03-9.19-.07l.21 2.1c2.37 1.49 5.51 5.8 8.43 3.23 3.49-3.21 7.96-6.23 10.06-10.52-2.46.15-4.92.3-7.39.35 2.31-3.03 5.52-5.3 8.12-8.09-.14-.81-.28-1.61-.43-2.41-1.84.49-3.69.99-5.55 1.41 1.7-2.3 3.89-4.01 5.87-6.04 2.72-2.84 4.38-6.1 6.57-9.26 1.7 6.26 6.48 9.79 9.45 15.23-1.54-.29-3.07-.62-4.6-.96.46 5.21 6.44 6.91 9.54 10.8-2.48-.2-5.08-.76-7.56-.55.1 2.03 2.67 3.52 3.86 5.03 4.17-1.04 7.7-3.38 9.89-7.13 2.16-3.17 1.98-6.45 2.96-10.15 2 3.9 2.17 7.61 4.95 10.85 2.42 2.96 5.79 4.52 8.25 7.34l-1 .88c-2.31-.42-4.55-1.07-6.88-1.41 1.25 4.65 6.39 5.22 8.99 8.92-1.73.92-3.78 1.6-5.27 2.86 1.73 3.72 5.15 3.02 8.61 3.3-.75-1.17-1.5-2.34-2.26-3.5 6.42-3.8 15.77-7.42 19.37-14.38-4.24 1.03-10.43 3.78-14.56 1.75 4.06-2.13 7.35-4.45 10.25-8.05 5.94-5.79 9.64-13.88 9.61-22.22 1.84.74 2.04 2.15 2.66 3.8.81 2.44 1.6 4.84 2.85 7.1 2.35 4.24 4.38 8.76 7.66 12.37 2.43 2.65 5.6 3.77 7.56 6.89-4.8 1.12-9.11.25-13.75-.97 2.59 4.03 6.37 6.57 10.46 8.89 2.42 1.26 4.22-.37 6.07-1.73 3.24-2.71 6.52-5.09 8.6-8.82-3.03.18-5.98.92-9.02 1.13 2.69-3.15 6.57-4.81 9.21-8.14-2.11-.08-4.22-.16-6.33-.28 1.17-2.02 3.01-3.14 4.65-4.71 3.29-3.4 6.35-6.9 8.36-11.24 2.95 5.38 7.24 9.08 11.83 12.97-1.22.63-2.47 1.22-3.74 1.77 1.27 1.16 2.57 2.3 3.87 3.42 3.61-6.02 5.83-12.22 10.43-17.64 1.39 4.58-2.1 7.07-3.13 11.28.38.84.8 1.67 1.24 2.48.71-.08 1.41-.15 2.12-.22 3.25-5.67 5.73-11.66 8.38-17.63.39-1.04 1.07-2.22 1.01-3.36-1.7-2.18-3.73-4.81-6.72-4.96-4.88-.79-9.43-2.49-14.09-4.07-1.59-.52-2.37-1.72-3.48-2.87-.46.21-.91.42-1.36.63-1.18-1.09-2.36-2.18-3.53-3.28-1.53-.23-3.07-.47-4.6-.74-3.76.94-7.35 2.63-11.13 3.42-4.7.19-9.63-1.63-14.05-3.1-3.91-4.72-8.43-8.98-13.17-12.85-4.59-4.07-10.45-5.74-15.02-9.96-2.51-2.38-5.86-4.49-7.23-7.68-.94-2.04-2.1-3.78-3.52-5.52-3.58-4.46-5.75-9.19-9.85-13.2-2.95-2.9-5.47-5.83-8.78-8.28-3.69-2.87-7.31-4.75-9.65-9.04-.98-3.37 1.42-4.79 3.94-6.25 4.14-2.51 9.28-3.39 11-8.43-1.56-1.11-3.25-2.7-5.14-3.14-3.58-.82-7.17-.66-10.44-2.59-6.6-4.11-10.32-10.08-13.92-16.76 1.92-.28 3.84-.58 5.76-.9.64-.82 1.27-1.65 1.91-2.47 5.3.84 8.78 5.82 13.37 8.84 7.36 7.36 15.78 13.45 23.06 20.87-.93.81-1.85 1.57-2.71 2.43 1.13-.68 2.25-1.41 3.36-2.13 4.05 3.3 7.43 7.26 11.37 10.66 5 3.92 9.22 8.81 13.83 13.23 3.25 3.4 6.85 6.5 9.92 10.07 4.74 6.9 9.69 15.53 16.96 19.99 14.13 9.78 28.87 16.55 41 28.96 1.72 1.97 3.42 3.95 5.24 5.83.65-.2 1.31-.4 1.97-.6V226H0V0z" fill="#fff"/><path d="M191.36 0h3.79l1.87.99c3.22 2.07 6.28 4.4 9.44 6.57 3.2 3.63 7.26 5.98 10.78 9.22 4.74 4.36 10.11 8.12 15.59 11.49 2.77 1.72 4.27 4.18 6.2 6.69 2.91 3.79 5.79 7.61 8.56 11.5 3.26-1.69 6.38-3.7 9.73-5.21 2.51-1.17 4.98-.01 7.19 1.24 3.31 2.09 6.3 4.5 9.89 6.16 3.82 1.91 7.96 2.65 11.92 4.07 2.2 2.13 3.5 5.09 5.53 7.41 2.45 2.88 4.72 5.79 6.86 8.9 3.89-2.35 7.72-4.11 11.08-7.24 3.43-3.37 7.99-4.92 12.45-6.46 4.93-1.37 9.84-2.84 14.7-4.44 7.78-2.78 13.55-7.91 19.29-13.65 2.19-2.51 5.61-2.45 8.33-.84 6.09 3.29 11.59 7.41 18 10.16 3.35-1.16 6.9-2.48 10.46-2.73 1.27.09 2.48.96 3.53 1.64 5.45 3.93 10 8.55 15.03 12.97 6.34 6.36 13.59 11.67 19.84 18.13 6.2 5.15 11.54 11.12 17.33 16.67 4.87 3.88 8.73 8.75 13.62 12.58 5.95 5.14 8.43 12.81 13.92 17.9 3.17 3.13 7.48 5.44 11.23 7.86 9.62 6.2 18.75 13.06 27.45 20.48 4.59 4.33 9.65 7.32 13.03 12.86v2.43c-.66.2-1.32.4-1.97.6-1.82-1.88-3.52-3.86-5.24-5.83-12.13-12.41-26.87-19.18-41-28.96-7.27-4.46-12.22-13.09-16.96-19.99-3.07-3.57-6.67-6.67-9.92-10.07-4.61-4.42-8.83-9.31-13.83-13.23-3.94-3.4-7.32-7.36-11.37-10.66-1.11.72-2.23 1.45-3.36 2.13.86-.86 1.78-1.62 2.71-2.43-7.28-7.42-15.7-13.51-23.06-20.87-4.59-3.02-8.07-8-13.37-8.84-.64.82-1.27 1.65-1.91 2.47-1.92.32-3.84.62-5.76.9 3.6 6.68 7.32 12.65 13.92 16.76 3.27 1.93 6.86 1.77 10.44 2.59 1.89.44 3.58 2.03 5.14 3.14-1.72 5.04-6.86 5.92-11 8.43-2.52 1.46-4.92 2.88-3.94 6.25 2.34 4.29 5.96 6.17 9.65 9.04 3.31 2.45 5.83 5.38 8.78 8.28 4.1 4.01 6.27 8.74 9.85 13.2 1.42 1.74 2.58 3.48 3.52 5.52 1.37 3.19 4.72 5.3 7.23 7.68 4.57 4.22 10.43 5.89 15.02 9.96 4.74 3.87 9.26 8.13 13.17 12.85 4.42 1.47 9.35 3.29 14.05 3.1 3.78-.79 7.37-2.48 11.13-3.42 1.53.27 3.07.51 4.6.74 1.17 1.1 2.35 2.19 3.53 3.28.45-.21.9-.42 1.36-.63 1.11 1.15 1.89 2.35 3.48 2.87 4.66 1.58 9.21 3.28 14.09 4.07 2.99.15 5.02 2.78 6.72 4.96.06 1.14-.62 2.32-1.01 3.36-2.65 5.97-5.13 11.96-8.38 17.63-.71.07-1.41.14-2.12.22-.44-.81-.86-1.64-1.24-2.48 1.03-4.21 4.52-6.7 3.13-11.28-4.6 5.42-6.82 11.62-10.43 17.64-1.3-1.12-2.6-2.26-3.87-3.42 1.27-.55 2.52-1.14 3.74-1.77-4.59-3.89-8.88-7.59-11.83-12.97-2.01 4.34-5.07 7.84-8.36 11.24-1.64 1.57-3.48 2.69-4.65 4.71 2.11.12 4.22.2 6.33.28-2.64 3.33-6.52 4.99-9.21 8.14 3.04-.21 5.99-.95 9.02-1.13-2.08 3.73-5.36 6.11-8.6 8.82-1.85 1.36-3.65 2.99-6.07 1.73-4.09-2.32-7.87-4.86-10.46-8.89 4.64 1.22 8.95 2.09 13.75.97-1.96-3.12-5.13-4.24-7.56-6.89-3.28-3.61-5.31-8.13-7.66-12.37-1.25-2.26-2.04-4.66-2.85-7.1-.62-1.65-.82-3.06-2.66-3.8.03 8.34-3.67 16.43-9.61 22.22-2.9 3.6-6.19 5.92-10.25 8.05 4.13 2.03 10.32-.72 14.56-1.75-3.6 6.96-12.95 10.58-19.37 14.38.76 1.16 1.51 2.33 2.26 3.5-3.46-.28-6.88.42-8.61-3.3 1.49-1.26 3.54-1.94 5.27-2.86-2.6-3.7-7.74-4.27-8.99-8.92 2.33.34 4.57.99 6.88 1.41l1-.88c-2.46-2.82-5.83-4.38-8.25-7.34-2.78-3.24-2.95-6.95-4.95-10.85-.98 3.7-.8 6.98-2.96 10.15-2.19 3.75-5.72 6.09-9.89 7.13-1.19-1.51-3.76-3-3.86-5.03 2.48-.21 5.08.35 7.56.55-3.1-3.89-9.08-5.59-9.54-10.8 1.53.34 3.06.67 4.6.96-2.97-5.44-7.75-8.97-9.45-15.23-2.19 3.16-3.85 6.42-6.57 9.26-1.98 2.03-4.17 3.74-5.87 6.04 1.86-.42 3.71-.92 5.55-1.41.15.8.29 1.6.43 2.41-2.6 2.79-5.81 5.06-8.12 8.09 2.47-.05 4.93-.2 7.39-.35-2.1 4.29-6.57 7.31-10.06 10.52-2.92 2.57-6.06-1.74-8.43-3.23l-.21-2.1c3.06.1 6.13.16 9.19.07-4.38-4.84-10.12-6.76-13.14-12.96 2.95.9 5.9 2.14 8.94 2.66l.57-1.25c-2.46-4.13-6.03-6.52-7.91-11-1.55-3.68-3.66-7.11-5.1-10.84-.93-2.38-.49-5.23-1.54-7.5-.58-.14-1.17-.25-1.77-.31-.86 2.52-1.3 5.05-2.74 7.35-3.08 5.15-5.03 10.46-8.82 15.18-2.44 3.26-5.92 5.28-8.39 8.5 3.76-.5 6.9-2.47 10.54-3.33-.24 2.98-1.79 5.15-3.31 7.6-3.63 1.91-6.74 4.36-10.05 6.77 3.54 1.33 6.75.59 10.51.9-.22 2.09-2.18 3.78-3.42 5.41-2.54 3.23-5.8 5.39-9 7.87-3.75-1.7-8.41-2.31-7.94-7.55 2.78.71 5.19 1.75 8.12 1.25-4.09-3.33-7.9-6.54-9.9-11.6 2.94.73 5.76 1.76 8.57 2.86l.09-2.03c-4.94-2.04-6.9-6.08-10.49-9.81-3.5-3.66-3.15-8.75-7.27-12-1.53 3.53-2.68 8.01-5.41 10.79-2.25 2.38-4.56 4.77-7.14 6.8-2.46 1.98-5.15 2.94-6.89 5.72 2.45-.44 4.86-1.07 7.27-1.68-.54 3.24-2.27 4.58-4.62 6.53-1.84.88-3.64 1.84-5.43 2.84 2.54 1.23 4.76 1.14 7.52 1.04-.34 1.1-.7 2.19-1.08 3.28-2.87 1.09-4.74 3.31-7.32 4.84-1.81-.49-3.61-1.55-4.93-2.87.36-1.1.75-2.19 1.18-3.27-3.52-2.39-6.75-5.14-10.15-7.7-1.43-.95-1.87-2.39-2.63-3.84 3.28.83 6.49 1.47 9.65 2.66 1.35-.24 2.7-.48 4.05-.75-2.66-2.35-5.75-4.01-8.52-6.23-2.42-4.11-6.49-5.64-6.69-10.85 3.61 1.49 7.19 3.05 10.82 4.49.02-.56.03-1.12.05-1.68-2.77-1.84-4.88-5.01-8.06-5.87.1-.6.19-1.2.29-1.81-3.75-5.62-5.76-12.56-8.12-18.99-.7-1.63-.83-3.66-2.73-4.26-2.04 3.51-2.98 7.32-5.77 10.43-3.03 3.39-4.97 7.57-8.15 10.79-3.48 3.11-6.28 6.39-11.07 7.44.12.59.24 1.18.36 1.78 3.8-.87 7.55-1.87 11.3-2.92-1.63 4.39-5.17 6.54-8.28 9.99-2.86 3.12-5.82 5.59-9.56 7.62.43.62.85 1.24 1.27 1.86 3.93-1.76 7.66-3.64 11.73-4.81-2.67 6.06-7.88 8.92-12.99 12.74-.97.85-2.71 1.45-2.69 2.89 3 .57 6.32-.92 9.32-1.27-.65 3.11-4.71 5.03-7.54 4.89-3.18-1.21-7.48-3.48-8.26-7.12 1.84-.5 3.68-.98 5.53-1.46-3.08-2.75-6.55-4.97-9.65-7.7-1.07-.77-1.32-1.87-1.82-3.02 2.9 1.18 5.14 2.57 8.43 1.81-3.75-4.63-8.3-8.29-11.75-13.34-1.59-2.41-2.39-5.02-3.59-7.6-1.39.49-1.65 1.52-2.25 2.73-3.06 7.66-10.42 13.91-16.07 19.68 2.66-.25 5.28-.76 7.91-1.24-3.71 4.55-9.18 7.74-13.77 11.34 2.02 2.8 5.2 1.57 8.25 1.94-.37 1.02-.36 2.62-1.25 3.33-2.58 1.94-5.8 3.18-8.73 4.5-2.41-.96-4.65-1.87-6.47-3.82 3.01-.48 5.57.65 7.77-1.81-4.96-2.68-8.7-6.44-11.32-11.43 2.45.49 4.85 1.18 7.3 1.69-.26-.76-.56-1.5-.88-2.23-5.48-4.38-7.69-11.81-11.43-17.86-2.52 2.98-4.35 6.31-7.16 9.05-2.69 2.65-5.08 5.56-7.46 8.49 1.61.04 3.21.08 4.82.11-2.23 3.07-4.51 5.78-8.14 7.21-1.93-.82-3.67-2.19-5.38-3.38-.85-1.15-1.66-2.28-2.72-3.25-3.31.8-5.7 4.56-8.58 6.34-2.11 1.68-4.8 2.22-5.54 5 2.19.07 4.38.15 6.57.28-3.04 2.08-6.73 3.7-10.4 4.13-3.15-.71-5.91-3.38-8.6-5.1-1.7-1.02-2.04-2.65-2.82-4.35 2.02.42 3.9 1.09 5.78 1.93.77-.63 1.54-1.27 2.3-1.9-6.42-4.44-9.24-10.97-12.7-17.67-1.33 7.06-6.06 11.24-11.28 15.61.16 2.47 6.03.67 5.02 3.44-1.63 2.49-5.16 3.58-7.97 4.01-2.55-3.11-5.24-4.82-4.56-9.33 1.83.75 3.68 1.49 5.54 2.18-.55-4.26-6.22-6.33-7.57-10.24 1.65-.52 3.34-.71 5.04-.93-4.43-3.95-7.02-8.24-9.51-13.57-2.37 3.38-5.82 7.22-10.14 7.68-3.6-1.55-7.88-3.85-9.9-7.34 2.57.67 5.13 1.35 7.76 1.74-2.08-4.59-7.86-4.56-9.68-9.79 2.58.3 5.06.91 7.54 1.63a356.76 356.76 0 01-8.07-8.88c-3.18-3.52-3.64-8.08-5.92-12.57-2.39 3.7-4 7.86-6.45 11.49-2.24 2.62-4.58 5-6.26 8.06 1.77-.16 3.54-.34 5.3-.54-1.48 1.48-2.9 3.02-4.28 4.6-1.81.99-3.44 2.07-4.79 3.66 2.94-.04 5.7-.77 8.54-1.41-.61 1.31-.86 2.03-2.23 2.67-2.99 1.68-6.09 2.79-8.6 5.25 2.23.15 4.46.24 6.69.32.02 4.18-3.15 4.26-6.01 6.15-2.49-.81-4.88-1.67-7.03-3.22 2.69-.01 5.39.11 8.08.11-2.94-3.89-9.92-4.04-10.46-9.59 2.42.77 4.8 1.66 7.17 2.56-4.2-5.64-9.12-9.56-10.6-16.72-3.25 2.46-4.09 5.89-6.57 9-1.39 1.98-3.9 2.95-5.86 4.4.18 1.81 1.95 1 3.25 1.3.31-.66.63-1.32.94-1.98 1.06.14 2.11.27 3.17.4-1.49 4.09-6.22 6.39-9.84 8.31-.11.65-.23 1.31-.34 1.97 2.16.07 4.33.16 6.49.31-2.42 2.17-5.3 3.33-8.28 4.49-.75-.66-1.51-1.31-2.26-1.96-.49-7.66 1.17-15.28 5.01-21.93 3.05-5.37 9.12-9.39 12.76-14.21 2.78-4.1 4.83-8.92 6.53-13.55 2.33-6.12 5.53-11.75 8.21-17.7.86-1.84 1.63-3.54 3.29-4.82 4.79-2.73 10.57-2.65 15.31-4.26 5.13-2.69 9.03-8.54 11.87-13.45 3.61-5.86 8.86-8.68 13.47-13.56 7.3-7.13 11.87-15.48 17.1-24 2.36-3.77 6.4-4.84 10.38-6.15 8.24-2.49 16.24-5.61 23.96-9.4 5.62-3.21 6.49-10.42 11.03-13.92 11.65-7.07 21.53-18.26 31.32-27.71 3.85-3.47 5.77-8.04 9.96-11.08 2.7-2.3 5.86-3.11 9.17-4.17z" fill="#345858"/><path d="M195.15 0H528v164.92c-3.38-5.54-8.44-8.53-13.03-12.86-8.7-7.42-17.83-14.28-27.45-20.48-3.75-2.42-8.06-4.73-11.23-7.86-5.49-5.09-7.97-12.76-13.92-17.9-4.89-3.83-8.75-8.7-13.62-12.58-5.79-5.55-11.13-11.52-17.33-16.67-6.25-6.46-13.5-11.77-19.84-18.13-5.03-4.42-9.58-9.04-15.03-12.97-1.05-.68-2.26-1.55-3.53-1.64-3.56.25-7.11 1.57-10.46 2.73-6.41-2.75-11.91-6.87-18-10.16-2.72-1.61-6.14-1.67-8.33.84-5.74 5.74-11.51 10.87-19.29 13.65-4.86 1.6-9.77 3.07-14.7 4.44-4.46 1.54-9.02 3.09-12.45 6.46-3.36 3.13-7.19 4.89-11.08 7.24-2.14-3.11-4.41-6.02-6.86-8.9-2.03-2.32-3.33-5.28-5.53-7.41-3.96-1.42-8.1-2.16-11.92-4.07-3.59-1.66-6.58-4.07-9.89-6.16-2.21-1.25-4.68-2.41-7.19-1.24-3.35 1.51-6.47 3.52-9.73 5.21-2.77-3.89-5.65-7.71-8.56-11.5-1.93-2.51-3.43-4.97-6.2-6.69-5.48-3.37-10.85-7.13-15.59-11.49-3.52-3.24-7.58-5.59-10.78-9.22-3.16-2.17-6.22-4.5-9.44-6.57L195.15 0zM193.12 6.66c.23 2.86-1.03 5.97-3.68 7.31.42.14.83.28 1.25.43-3.24 5.29-6.01 11.02-9.72 16l-1.44.02c-.65-2.6 2.65-5.82 3.71-8.22 3.14-4.85 4.97-12.3 9.88-15.54z" fill="#fff"/><path d="M197.98 9.67c9.51 6.44 18.26 14.01 27.61 20.68 2.37 1.75 4.77 3.17 6.5 5.59 5.08 6.86 9.42 14.07 15.42 20.24 3.92-3.12 6.84-7.14 11.91-8.71 5.12-.99 7.95 2.89 12.12 5.05 4.23 2.64 8.6 2.05 12.24 5.7 2.94 3.07 5.54 6.5 8.28 9.75 2.8 3.65 6.21 6.49 8.49 10.54 2.44 4.37 7.22 7.39 12.02 8.52.39 1.62.8 3.25 1.24 4.86 1.3-.59 2.61-1.18 3.92-1.77.28 1.63.56 3.25.83 4.88 1.78-.39 3.46-1.02 5.17-1.63.85 1.14 1.1 4.97 2.73 5.07 1.68-2.02 2.91-4.49 4.23-6.76 2.67-4.86 5.97-9.32 8.55-14.24 4.47-8.48 9.69-16.49 14.29-24.89 1.26-2.09 2.48-4.59 4.37-6.15 1.32.19 1.6.96.85 2.31-3.2 5.97-6.67 11.81-9.81 17.82-.47.08-.94.17-1.41.26l1.08.69c-2.85 4.11-4.57 8.68-6.36 13.31.64.81 1.28 1.63 1.92 2.45 2.87-3.77 4.72-8.01 7.06-12.09 4.54-8.06 9.19-16.12 13.9-24.08.91-1.71 1.97-1.68 3.7-2.02-3.01 7.01-7.71 12.94-11.01 19.79-4.4 8.01-8.25 16.41-13.39 23.86l-1.96.09c-.23-2.04.08-3.87-1.37-5.54-3.07 2.05-4.7 5.42-6.59 8.49-1.69 2.98-3.59 5.98-4.74 9.22-.28 1.61-.11 4.62 2.33 3.55 3.79-3.86 5.36-9.65 8.62-14.05.65.39 1.31.77 1.96 1.15-2.81 5.97-7.08 11.71-8.43 18.06 1.43.02 2.87.04 4.3.04 1.66 2.18 1.5 4.76 2.74 7.01 1.86.51 2.48-.81 3.84-1.74 1.6 1.88 2.67 3.57 3.59 5.88 1.76-1.3 3.33-1.7 4.71-1.2-.36 1.55-.82 3.07-1.28 4.58.96.4 1.93.79 2.9 1.18 1.39-1.53 2.8-3.03 4.23-4.53 1.64 2.04 1.61 4.32 2.01 6.78.66-.05 1.31-.09 1.96-.13 1.26-1.84 2.11-2.9 4.36-3.61.14 2.01.25 4.03.35 6.04 1.51-.49 2.8-.9 3.75-2.29 2.85-3.91 4.36-8.85 7.28-12.73 1-1.29 2.35-1.73 3.73-2.51-2.3 6.43-6.22 12.25-8.63 18.65-.32 1.29 1.71 2.66 2.43 3.69 3.42-5.15 6.43-10.44 9.32-15.9 1.52-2.3 2.3-5.12 5.39-5.54-2.84 7.63-7.79 14.42-10.89 21.96-.47 1.34-.23 2.92-.28 4.33l2.44-.03c2.3-3.53 4-7.39 6.2-10.97l3.13-.19c-.85 3.8-3.13 6.9-4.35 10.53.27 1.32.62 2.62 1.06 3.9 4.61-3.09 6.13-9.46 9.47-14.02l1.51 2.13c.3 3.46-3.47 6.71-4.3 10.04-.23 1.66.1 2.29 1.28 3.38 1.16.11 1.68-.66 2.38-1.45 2.16-2.79 3.16-5.8 6.16-7.93 1.16.89 1.46 1.85.92 2.89-1.54 3.73-3.75 7.14-5.21 10.93.81.68 1.61 1.36 2.42 2.04 4.79-4.15 6.07-9.48 9.44-14.91.53.54 2.42 1.13 2.03 2.01-.93 3.93-5 7.82-5.25 12.06-.13 2.09 1.76 1.6 3.12 1.4 2.37-2.94 2.56-7.14 6.39-8.51-.52 2.59-1.86 4.77-2.83 7.18-.78 1.33.37 3.37 1.93 3.47 1.99-2.17 3.26-4.62 4.66-7.17l2.5-.09c-.67 3.97-3.5 6.81-4.32 10.67.28 1.29.7 2.55 1.25 3.79 3.77-4.06 4.97-9.38 9.21-13.05 1.55 3.83-.89 5.83-2.58 8.97-3.06 5-5.85 10.17-8.77 15.26-2.45 4.23-4.15 8.5-7.84 11.85-.68-2.71.9-4.34 1.64-6.86-3.2-5.84-8.31-10.79-13.05-15.42-5.63-.35-11.18-1.22-16.51-3.11-8.07-2.7-14.51-7.89-22.74-10.28-5.58-4.27-11.75-5.29-18.21-8.49-6.81-3.58-13.85-7.51-21.22-9.79-5.24-1.58-10.05-5.29-14.31-8.64-5.63-4.07-8.49-11.73-12.78-17.3-8.23-3.25-13.77-9.27-19.66-15.58-1.38.27-2.61.14-3.67 1.22-5.55 5.02-10.59 11.45-16.81 15.61-6.82-1.01-13.84-2.02-20.49-3.88-3.59-.87-6.17-3.09-9.29-4.85-4.3-.93-8.87.86-12.84-.88-4.76-1.97-7.09-5.76-10.92-8.81-4.25-3.04-7.1-7.1-12.08-9.14-3.14.96-6.29 1.8-9.46 2.64-1.64-7.36 1.75-13.87 2.34-21.24 1.14-6.93-1.61-14.1 1.08-20.83 2.81-6.91 5.86-13.93 10.05-20.13 1.8-2.69 3.13-5.61 4.8-8.38zM177.91 18.79l.87.52c.21 3.15-2.68 6.59-4.71 8.82-1.14-3.96 1.19-6.75 3.84-9.34z" fill="#fff"/><path d="M194.04 21.13c1.37-1.14 2.86 1.36 3.6 2.3.66 1.27 2.23 3.5.27 4.33-2.26-.96-3.71-4.29-3.87-6.63zM360.24 25.23h.52v.52h-.52v-.52zM102.25 27.25c.52.53.52.53 0 0zM193.99 26.51c1.99 1.47 3.24 3.47 4.55 5.52.25-1.22.54-2.43.87-3.64 2.06 2.14 3.42 4.06 3.93 7.07-1.9-.93-3.15-2.22-4.44-3.85.07 1.58-.24 2.95-.93 4.1-1.66-1.12-2.73-2.31-3.67-4.07-.78-1.9-2.21-3.38-.31-5.13z" fill="#345858"/><path d="M172.12 29.87c.25 4.3-1 5.74-4.16 8.27.25-2.7.9-4.61 2.33-6.9.6-.46 1.21-.92 1.83-1.37z" fill="#fff"/><path d="M371.24 31.23l.52.01v.51h-.52v-.52z" fill="#345858"/><path d="M176.45 34.98c.8-.23 1.61-.44 2.42-.63-.34 2.38-.71 3.28-2.51 4.94-.08-1.39-.71-3.09.09-4.31z" fill="#fff"/><path d="M186.39 36.7c1.22.22 2.84.09 3.58 1.27 2.06 3.14 4.06 6.57 5.57 10l-.41 2.19c-3.26-.93-4.68-6.16-6.37-8.74l-1.08 1.44c1.05 2.25 1.45 3.06.56 5.47-1.9-2.02-3.28-4.34-4.6-6.75 2.06-1.58 1.8-.71 4.18.47-.48-1.78-1.02-3.55-1.43-5.35z" fill="#345858"/><path d="M166.97 39.87c.15 1.95.03 3.45-.99 5.14-1.59 2.66-2.94 5.6-4.94 7.97l-1.61-.85c1.79-4.2 3.83-9.39 7.54-12.26zM174.14 41.51c-.68 4.4-2.1 7.01-5.38 9.98.02-4.08 1.68-7.97 5.38-9.98z" fill="#fff"/><path d="M215.25 48.23c.53.55.53.55 0 0z" fill="#345858"/><path d="M148.04 49.06c.01 4.45-3.63 7.33-3.97 11.82 3.43-.97 3.62-5.07 6.72-6.97.09 4.41-3.65 8.55-5.69 12.29-4.58 8.69-9.56 17.22-14.01 25.97-1.13 2.08.86 2.39 2.37 2.81 1.97-3.53 4.31-6.8 6.16-10.39 1.61-3.05 3.11-6.04 5.74-8.38-.17 1.74-.32 3.38-1.19 4.93-2.47 4.81-5.16 9.49-7.9 14.15-1.15 1.97-1.42 3.38-1.02 5.65.92-.38 1.82-.8 2.7-1.25.77.41 1.53.85 2.28 1.3-1.42 4.02-3.97 7.45-5.09 11.62 1.06.02 2.13.04 3.2.05 4.27-6.85 8.87-13.71 12.36-21.01l1.78-.21c.23.85.45 1.71.68 2.56-4.03 7-7.91 14.14-12.4 20.85-1.57 2.5-3.61 5.24-2.88 8.35 1.39.59 2.32.45 2.78-.43 4.12-5.37 7.24-11.62 10.69-17.43.99-1.71 2.38-2.99 3.77-4.36.31 1 .58 2.02.81 3.04-1.24 3.86-4.15 7.27-6.1 10.82-2.18 3.98-4.84 7.95-6.31 12.26l.25 1.15 1.19.47c3.85-4.54 6.19-10.23 9.77-15.01 1.01-1.58 1.73-1.97 3.57-2.4-2.8 7.23-7.74 13.54-10.61 20.71-.91 2.12 1.25 2.33 2.35 1 2.83-3.6 4.6-8.05 7.19-11.86 1.62-2.23 2.53-5.55 5.42-6.25-1.66 6.9-7.23 13.12-10.27 19.46-.59 1.07.34 2.65.53 3.79 5.49-4.53 7.04-10.93 11.18-16.26l2.83-.6c-2.06 4.71-5.03 8.69-7.47 13.19-2.88 5.1-5.4 10.34-7.35 15.88-1.09 1.7-1.84 3.18-2.17 5.19.84-.05 1.69-.11 2.53-.17.42-1.76 1.04-3.03.17-4.8 1.01-.53 2.03-1.04 3.06-1.54 2.7-3.68 4.47-7.96 7.25-11.56l3.17-.35c-.85 3.09-2.33 5.91-3.33 8.94.07.78.51 1.49 1.33 2.12 5.74-2.81 8.15-11.62 12.01-16.49.32 1.06.57 2.13.77 3.21-1.53 4.35-4.57 8.19-6.65 12.31-.9 1.93-2.79 4.34-1.97 6.52 1.32 1.1 2.4 1.03 3.24-.21 2.71-3.82 4.55-8.27 7.11-12.22.78.08 1.56.17 2.34.26-1.31 3.61-3.68 6.47-5.47 9.81-2.15 4.41-5.02 7.65-4.37 12.92 2.73-2.37 5.1-5.1 6.95-8.21 1.3-2.28 2.2-4.08 4.86-5.08-1.77 5.36-5.35 9.67-7.35 14.92.39.8.78 1.59 1.17 2.39l1.47-.09c2.59-2.95 4.27-7.05 7.45-9.34-1.45 3.79-3.78 7.41-5.86 10.9-1.18 1.95-2.49 3.67-4.66 4.57-7.74-.44-13.95-3.82-21.07-6.39-4.81-2.09-8.85-5.51-13.75-7.46-1.9-3.17-2.91-5.87-3.49-9.53-.13-1.88-2.16-3.2-3.34-4.55-6.03-.02-11.86-.75-17.32-3.47-2.22-1.13-4.19-1.6-6.67-1.8-.9 2.31-2.07 4.83-2.22 7.3 1.38.29 2.57-.37 3.58-1.97.73-.12 1.46-.23 2.18-.34-.68 2.26-1.27 4.52-1.59 6.86 1.86-1.69 3.59-3.5 5.42-5.21-.75 3.08-2 6-2.86 9.05 3.61-.3 5.45-5.67 7.55-8.2 2.38.61 4.78.88 7.22 1.05-2.36 5.44-7.12 10.44-7.89 16.32 1.63-.56 3.22-.27 4.09-2.02 2.45-3.99 4.43-8.28 6.98-12.23.04 5.72-4.8 11.11-6.81 16.37.05 1.04.24 2.08.57 3.12 4-3.5 4.36-9.09 8.92-11.38-1.62 5.34-5.4 9.4-6.45 14.87 1.6-.65 3.08-.95 4.05-2.49 1.98-2.89 3.68-5.92 5.94-8.62 1.21 5.08-3.9 10.13-5.93 14.59-.79 1.43-2.37 4.96.87 4.16 3.53-2.78 5.18-8.26 7.7-11.99l1.95 1.44a93.753 93.753 0 00-6.72 12.03c.5.45 1.01.9 1.51 1.35.56.02 1.11.03 1.67.05 2.05-3.37 3.89-6.86 5.96-10.21.94-1.23 2.21-1.26 2.01.72-2.47 5.61-6.06 10.67-8.71 16.16.41.72.85 1.42 1.3 2.11 4.97-3.53 6.44-8.82 9.89-13.43l2.63-.12c-2.23 5.31-5.67 10.23-8.5 15.29-1.77 3.15-3.86 6-6.2 8.75l-2.66.3c1.39-2.64 2.61-3.9 1.19-7-3.13 3.22-5.53 6.9-8.13 10.53-.87-.29-1.74-.58-2.62-.86-.39-3.38-1.11-6.68-1.72-10.02-.7-3.99-.17-8.24-1.07-12.16-1.48-2.91-3.8-5.4-5.6-8.13-1.88.39-4.3 1.6-6.22 1.05-2.41-1.33-4.68-3.76-5.67-6.35-3.42-9.05-4.73-18.56-8.51-27.5-1.29-3.59-4.05-5.6-6.27-8.85-3.09-4.35-4.31-9.11-6.1-14.02-.95-2.58-3.25-4.86-3.77-7.52 1.01-2.76 2.5-5.35 3.75-8l1.02.42c.37-3.62 2.52-5.9 4.16-8.98 1.46-2.44 2.2-4.86 4.86-6.31-.74 5.69-5.42 9.68-6.41 15.44 1 .04 2 .08 3.01.11 5.75-8.98 10.31-18.81 16.2-27.7 1.26-1.73 3.03.55 1.94 1.8-4.33 7.07-8.31 14.1-11.38 21.84 1.86-.22 3.22.1 4.35-1.65 3.85-5.27 6.79-11.29 10.22-16.84 2.07-3.23 2.9-6.51 6.68-8.22-.53 4.63-3.3 7.5-5.43 11.53-3.29 5.25-5.4 11.06-8.84 16.22-.02.71-.03 1.42-.05 2.13 1.01-.11 2.02-.26 3.02-.44 1.2-1.07 1.95-2.71 2.76-4.08 4.46-8.14 9.33-16.05 13.9-24.12 1.67-2.65 2.23-5.56 5.38-6.77-2.79 8.81-9.55 16.64-13.17 24.99-.79 1.56-.47 2.94-.1 4.57 3.42-.9 4.52-5.65 6.35-8.32 4.09-6.04 7.44-12.48 11.25-18.69 1.53-2.51 2.98-5.04 4.26-7.68l1.61.57c-.2-.54-.39-1.08-.59-1.62.29-.74.59-1.49.88-2.23.41.15.83.3 1.24.45.03-1.25-.11-2.38.48-3.54 1.68-3.56 3.54-6.92 6.22-9.84z" fill="#fff"/><path d="M219.28 49.24c.69.88 1.38 1.76 2.05 2.65-.58.76-1.17 1.52-1.75 2.28-.87-1.21-2.41-2.2-2.21-3.82.61-.4 1.25-.77 1.91-1.11zM228.29 51.91l1.85-.42c2.13 2.36 3.94 5.09 5.47 7.86 1.24 2.21.81 2.92-.38 5.05-3.23-3.71-6-7.55-6.94-12.49z" fill="#345858"/><path d="M167.28 53.21c.07 4.43-2.65 6.87-4.62 10.45-1.83 3.24-3.41 6.57-5.7 9.53-2.12-2.62.28-4.39 1.36-6.84 2.64-4.27 4.67-10.36 8.96-13.14zM370.29 54.11c2.51 1.92.84 3.02.04 5.36l-2.27-.09c.21-2.25.5-3.68 2.23-5.27z" fill="#fff"/><path d="M252.94 55.22c.81-.04 1.62-.05 2.42-.04 1.82 3.62 3.91 7.07 5.88 10.6.83 1.6.67 1.77-.52 3.05-2.64-1.66-4.02-5.31-5.67-7.88-1-1.95-2.56-3.4-2.11-5.73z" fill="#345858"/><path d="M173.98 55.55c-.29 3.56-2.24 9.01-6.25 9.73 1.02-3.54 2.77-7.96 6.25-9.73z" fill="#fff"/><path d="M222.75 55.72c2.43 3.14 4.27 6.76 6.46 10.08 1.24 1.87 2.09 3.73 2.76 5.86-1.12.03-2.24.06-3.35.08-2.32-4.41-5.38-8.52-7.28-13.11-.61-1.61-.26-2.42 1.41-2.91z" fill="#345858"/><path d="M157.91 56.84c-.3 1.25-.05 3.85-1.42 4.52-.79.24-1.59.45-2.4.63.87-2.26 1.76-3.81 3.82-5.15z" fill="#fff"/><path d="M261.89 57.11c1.19 2.11 5 6.16 1.09 7.63-2.68-1.53-3.18-4.05-4.2-6.73 1.03-.33 2.07-.63 3.11-.9zM201 57.66c.74.54 1.47 1.1 2.16 1.68.07.85.14 1.69.19 2.54-1.04-.36-2.04-.65-3-1.2.15-1.02.37-2.02.65-3.02zM245.96 58.58c2.32 1.68 2.79 2.96 2.93 5.76l-2.39.03c-.84-1.55-1.7-3.09-2.5-4.66.64-.41 1.29-.79 1.96-1.13z" fill="#345858"/><path d="M343.64 57.62c.09 1.1.17 2.2.24 3.3-.92-.16-1.84-.32-2.77-.49.73-1.12 1.45-2 2.53-2.81zM378.19 58.07c.36 1.63 1.18 2.66.04 4.18-3.24 4.91-5.83 10.25-9.49 14.84-1.55-4.06.87-6.36 2.72-9.67 2.24-3.41 3.22-6.92 6.73-9.35z" fill="#fff"/><path d="M400.09 62.25l.82.01.41.71-.41.72-.82-.01-.41-.72.41-.71z" fill="#345858"/><path d="M131.36 63.55c.8.28 1.58.59 2.35.94-.9 2.14-1.18 2.15-3.51 2.48.36-1.16.69-2.3 1.16-3.42z" fill="#fff"/><path d="M203.24 63.78c.73-.13 1.46-.23 2.19-.31 1.97 3.13 4.46 6.14 5.88 9.55.65 1.32.2 2.33-1.37 3.04-2.02-1.65-3.29-4.03-4.58-6.26-1.03-2.01-2.21-3.67-2.12-6.02z" fill="#345858"/><path d="M365.91 62.18c.62.65 1.23 1.31 1.82 1.99-1.9 3.46-4 8.34-7.75 10.07.28-4.38 3.52-8.53 5.93-12.06zM151.51 64.46c.96.48 1.88 1.07 2.8 1.63-1.25 1.86-2.28 3.06-4.38 3.99.37-1.92.83-3.81 1.58-5.62z" fill="#fff"/><path d="M236.33 64.37c1.75-.54 2.86 1.41 3.48 2.74.35 2.06-1.13 1.85-2.46 2.74-.54-1.78-2.21-3.72-1.02-5.48zM197.91 65.55c-.43 1.22-.91 2.43-1.41 3.63-.44-.99-.87-1.99-1.3-2.99.9-.22 1.8-.44 2.71-.64z" fill="#345858"/><path d="M332.24 64.77c1.81.18 1.15 2.97-.35 3.2-1.91-.24-1.03-2.81.35-3.2zM337.27 65.36c.91.26 1.81.55 2.71.88-1.3 2.92-2.72 5.27-5.34 7.2-.1-3.07.98-5.58 2.63-8.08zM382.73 65.18c-.08 2.84-.61 3.96-2.41 6.09-.51-.84-1.02-1.69-1.51-2.55 1.1-1.78 2.01-2.68 3.92-3.54z" fill="#fff"/><path d="M264.83 65.03c1.7 1.82 4.49 2.7 2.69 5.64-1.72.39-2.41-.76-3.67-1.66.12-1.41.44-2.74.98-3.98z" fill="#345858"/><path d="M167.32 66.52c-.68 5.08-3.56 8.51-5.96 12.84-1.61 2.86-2.56 5.28-1.34 8.55 1.23-.1 2.45-.27 3.65-.51 1.96-.92 2.73-2.3 5.07-1.52-.31 2.12-.58 4.25-.73 6.39 4.05-.85 4.52-7.6 8.52-6.71.03 3.37-2.14 5.43-3.55 8.33-.68 1.72-2.08 2.98-.55 4.68.76.11 1.51.15 2.27.11 3.25-3.64 4.69-7.92 8.77-10.91.04 1.67.15 3.4-.07 5.07-1.4 3.86-4.45 6.05-4.17 10.49l2.21.06c1.69-2.56 2.99-5.49 4.95-7.84 1.65-.92 2.5 1.22 1.78 2.41-1.08 2.99-3.59 5.78-4.03 8.92.52 1.02 2.11 1.25 3.08 1.74 2.43-3.74 4.79-7.5 6.77-11.51 1.09 0 2.19-.01 3.29-.01-1.23 2.79-2.65 5.48-3.9 8.26-1.07 1.94-.41 3.19.42 5.07 3.9-3.37 4.31-8.7 8.53-11.53.15.95.24 1.9.29 2.85-1.66 3.69-4.09 6.6-4.48 10.8.75.06 1.51.12 2.26.17 2.36-3.58 4.68-7.18 6.97-10.8.35 1.74 1.15 3.07.33 4.82-1.31 3.11-3.01 6.02-4.12 9.23a16.723 16.723 0 00-2.87 4.71l3.89-.12c0-1.17.01-2.34.01-3.51 3.89-1.01 5.82-6.57 8.02-9.62.79.04 1.58.07 2.37.11-1.64 4.29-4.19 7.74-4.89 12.39 3.42-.13 4.33-2.52 6.14-4.92 1.47.45 2.9.81 4.25 1.55.46 1.05.84 2.14 1.14 3.26l1.76-.21c.81-1.54 1.63-3.07 2.45-4.59.89.8 1.77 1.61 2.66 2.42 2.35-.03 4.69-.01 7.05.08-5.77 3.85-11.85 7.56-18.36 9.99-2.58.84-2.89 3.64-2.69 5.98 2.58.6 3.68-1.8 5.31-3.27-.07 2.22-.13 4.45-.14 6.67 4.59-1.71 3.9-6.7 8.18-9.13-.93 4.35-3.19 7.94-4.78 12.13.48.79.97 1.58 1.46 2.37 3.65-4.19 5.46-9.95 8.2-14.77.44 1.12 1.33 2.24.99 3.48-1.11 4.08-4.2 7.85-4.89 12.04.32 2.64 1.36 1.53 3.15 1.03 2.57-3.92 4.25-8.48 6.58-12.54.85-1.57 2.2-2.38 3.55-3.46-.22 1.78-.2 3.42-.94 5.08-1.93 4.38-4.05 8.67-6.15 12.97-.97 1.77-.54 3.43-.44 5.35-1.51 1.34-3.08 2.58-4.65 3.83 1.47.51 3.03 1.37 4.58 1.19 1.86-1.48 1.11-2.74 1.01-4.82 2.63-2.67 4.05-5.94 5.88-9.15 2.22-4.47 5.29-8.38 7.58-12.8l1.91-.09c-.23 1.73-.52 3.31-1.47 4.81-2.9 4.86-5.84 9.65-8.21 14.8-.64 1.17-.77 2.48-.41 3.95 4.47-1.11 8.59-.02 12.93 1.17l-.03 1.41c-3.65 2.87-8.63 4.04-12.99 5.39-3.53 1.19-6.96 2.16-10.72 2.21-4.56.14-8.42-1.6-13-1.78-2.34-.2-4.38.12-6.48-1.11-2.64-1.35-3.8-4.05-6.01-5.68-3.05-1.22-6.07-1.46-8.73-3.61-3.12-2.45-7.65-5.09-8.96-8.99-1.32-3.68-2.48-7.41-3.84-11.07-1.61-4.05-.95-9.19-1.94-13.23-2.56-3.03-5.97-5.39-8.73-8.23-2.88-3.16-4.15-7.74-6.91-11.02-2.96-2.97-6.72-4.99-9.26-8.72-.49-4.4 1.66-9.19 3.85-12.91 2.28-3.86 3.57-7.83 7.33-10.47zM177.83 67.24c-.22 1.24-.52 2.45-.82 3.67l-2.99-.45c1.01-1.81 1.14-3.8 3.81-3.22z" fill="#fff"/><path d="M198.77 69.13c2.62 2.32 4.28 4.14 4.84 7.71-1.96-.29-3.51.25-4.59-1.82-1.62-2.46-1.47-3.26-.25-5.89zM245.71 70.71c2.27-.19 3.1.36 2.61 2.74-1.07 1.87-2.37.25-3.71-.34.33-.81.7-1.62 1.1-2.4zM252.43 70.3c3.47 1.04 4.6 4.1 4.89 7.43-1.01.03-2.02.05-3.03.08-.81-2.14-3.6-5.39-1.86-7.51z" fill="#345858"/><path d="M309.48 70.69c1.17-.42 1.77.38 1.79 1.46.21 2.16-2.28 3.73-4.18 3.73-.19-1.99.82-4.02 2.39-5.19zM327.48 71.39c2.62-1.27 1.01 1.63.74 2.84-1.69 3.43-3.5 7.42-7.01 9.29 1.41-4.31 3.6-8.47 6.27-12.13zM385.65 71.58c1.13-.22 2.29-.38 3.45-.47-.42 2.05-1.34 3.87-2.32 5.69-1.01-.02-2.03-.03-3.05-.05.51-1.79.86-3.6 1.92-5.17zM111.97 71.8c-.06 1.91-.55 3.54-1.29 5.28-.49-1.11-1.75-2.25-1.01-3.52.72-.64 1.49-1.23 2.3-1.76z" fill="#fff"/><path d="M232.28 73.87c3.09 1.33 3.98 3.6 4.5 6.72-.83.01-1.66.01-2.49.02-1.23-2.31-2.96-3.9-2.01-6.74zM281.59 74.31c.05 1.2.09 2.4.12 3.6-.82-.14-1.64-.3-2.46-.45-.08-.78-.15-1.55-.18-2.32.83-.3 1.67-.58 2.52-.83zM290.42 74.38c3.08.77 4.85 5.01 2.78 7.69-1.86-2.3-4.9-4.49-2.78-7.69z" fill="#345858"/><path d="M376.24 74.53c2.81-.25 1.69 4.79-.74 3.97-.54-1.83-.97-2.66.74-3.97zM152.44 75.36c2.78.58 1.17 1.79 1.19 3.95-1.37-1.47-1.49-1.92-1.19-3.95z" fill="#fff"/><path d="M243.6 74.87c3.29 4.57 6.18 9.51 8.77 14.5-1.02.15-2.05.3-3.07.44-2.17-4.16-4.7-8.11-6.87-12.26-.91-1.67.14-1.67 1.17-2.68z" fill="#345858"/><path d="M172.71 76.23c-.47 3.11-1.44 5.56-3.6 7.88-.79-2.96.2-7.25 3.6-7.88z" fill="#fff"/><path d="M248.53 75c2.86 2.5 5.36 5.73 7.19 9.04-.57 1.25-1.36 1.82-2.36 1.71-2.92-3.03-5.42-6.24-4.83-10.75zM212.28 78.1c3.52 1.11 5.61 6.1 7.29 9.12.97 1.95.79 4.41-1.99 3.33-2.1-2.61-3.8-5.69-5.15-8.75-.56-1.15-.61-2.38-.15-3.7z" fill="#345858"/><path d="M333.36 77.41c-1.63 4.26-3.91 9.71-8 12.13 1-3.44 2.56-6.62 4.24-9.77 1.08-1.97 1.55-1.98 3.76-2.36zM357.76 78.06c-1.18 3.74-2.44 7.79-5.64 10.32-.24-4.4 2.08-7.95 5.64-10.32z" fill="#fff"/><path d="M281.71 79c3.09 1.28 4.93 2.38 3.64 6.02-1.14-.67-2.26-1.37-3.37-2.09l-.2-.79-.07-3.14z" fill="#345858"/><path d="M364 79.98c.78-.12 1.36.32 1.73 1.32.15 1.83-1.53 1.89-2.71 2.82.25-1.41.49-2.79.98-4.14z" fill="#fff"/><path d="M131.43 81.47c.85-.11 1.71-.19 2.57-.23-.67 2.64-1.3 4.35-3.72 5.8-.02-2.03-.1-3.84 1.15-5.57zM288.95 79.83c1.63 2.03 3.14 4.11 4.58 6.27-1.11.47-2.62 2.75-3.64 1.01-1.49-2.41-3.99-4.89-.94-7.28z" fill="#345858"/><path d="M149.77 81.57c-1.2 6.81-5.38 13.19-8.99 18.99-.87-.54-1.69-1.18-2.44-1.91 4.15-5.51 6.61-12.31 11.43-17.08zM370.23 82.75c8.22 1.03 15.82 1.19 24.08.63-.56 1.66-1.16 3.31-1.78 4.95-4.66 1.37-9.05 2.08-12.82 5.36-1.3 1.84-2.77 3.43-4.42 4.95-4.08-2.34-8.45-4.39-13.01-5.59-3.46-1.01-7.58.38-11.18.58 1.83-3.53 5.02-4.78 7.98-7.15 2.87-.15 5.64-.14 8.39-1.07.93-.87 1.83-1.78 2.76-2.66z" fill="#fff"/><path d="M426.24 83.22c.53.55.53.55 0 0zM423.03 85.63l-.01-.08c.6.83 1.22 1.66 1.84 2.48l2.93-2.12c-.46.58-.93 1.15-1.39 1.72 1.95 2.57 4.58 5.4 5.46 8.55-.24 1.01-.53 2-.87 2.98-.93-.69-2.29-1.23-2.84-2.28-2.02-3.45-3.51-7.22-5.38-10.76l.11-.2.15-.29zM256.22 86.17c1.17 1.26 1.47 2.73 1.8 4.36-.88-.01-1.76-.03-2.64-.04-.35-.83-.67-1.67-.95-2.52.45-.69 1.04-1.29 1.79-1.8zM284.77 86.01c3.07.47 2.92.45 4.65 2.65 1.07 1.66 2.91 4.05 2.34 6.13-1 1.03-1.82 1.02-2.46-.01-2.23-2.62-3.3-5.61-4.53-8.77zM127.25 89.31l1.54-.14c.9 3.06-1.11 5.48-3.14 7.48-1.03.27-1.72-.09-2.08-1.09.77-2.19 2.19-4.48 3.68-6.25z" fill="#345858"/><path d="M189.36 89.53c.83.19 1.64.43 2.45.72-.47.65-.69 2.86-1.8 2.44-1.73.05-1.71-2.19-.65-3.16z" fill="#fff"/><path d="M432.12 90.53c.78-.07 1.56-.13 2.33-.15 1.32 1.76 2.73 3.66 3.58 5.7.53 2.11.67 3.83-2.16 3.56-1.99-2.35-4.3-5.89-3.75-9.11zM420.38 93.22l2.75.4c2.83 2.55 4.62 6.46 6.44 9.78 1.29 2.16-.86 2.54-2.16 3.67-2.99-4.4-5.81-8.57-7.03-13.85z" fill="#345858"/><path d="M344.6 98.27c.57.85 1.08 1.74 1.48 2.68-.66 1.64-1.59 3.21-2.43 4.77-.84-.03-1.69-.05-2.53-.08.77-2.68 1.69-5.18 3.48-7.37zM272.9 100.58c1.92-.43 1.74-.71 2.3 1.35-1.33 3.2-3.5 6.03-5.06 9.13-1.13 2.28-2.37 4.27-4.12 6.13-.25-1.58-1.01-2.8-.12-4.31 2.13-4.17 4.27-8.49 7-12.3zM355.11 99.21l1.29 1.77c-1.5 3.75-4.24 7.12-6.71 10.28-.46-1.08-.77-2.19-.93-3.31 1.35-3.09 3.16-7.22 6.35-8.74z" fill="#fff"/><path d="M440.59 99.9c.39 1.25.84 2.54 1.1 3.82-1.18 1.51-3.32 1.29-3.52-.84-.71-1.63 1.35-2.33 2.42-2.98z" fill="#345858"/><path d="M162.44 101.22c.59.85 1.18 1.71 1.75 2.58-1.58 1.83-2.68 3.72-5.2 4.35.4-3.26 1.07-4.69 3.45-6.93zM224.25 101.31c2.41-.47 1.28 2.33 1.78 3.79-1.04-.45-2.06-.92-3.08-1.4.39-.82.82-1.62 1.3-2.39zM360.18 101.11c2.88-.35 1.53 2.39.75 3.83-2.09 3.36-4.01 8.16-7.58 10.13 1.7-4.85 4-9.66 6.83-13.96z" fill="#fff"/><path d="M435.19 100.48c.88 1.64 1.45 3.28 1.88 5.09l-3.64.15c-.57-.95-1.14-1.91-1.71-2.88.03-3.19.81-2.53 3.47-2.36zM113.32 102.29c1.54.21 2.33-.33 2.38 1.68-.88 2.41-2.28 3.51-4.69 4.25.41-2.35.15-4.4 2.31-5.93z" fill="#345858"/><path d="M368.72 102.9c.37.88.69 1.78.95 2.7-.75.89-1.58 1.7-2.41 2.52-.36-.98-.67-1.98-.94-2.98.54-1.07 1.46-1.57 2.4-2.24z" fill="#fff"/><path d="M326.36 105.64c1.05.8 2.03 1.68 3.02 2.53-.61 1.45-1.23 2.88-1.88 4.31l-3.53.24c.2-2.72.98-4.77 2.39-7.08z" fill="#345858"/><path d="M377.84 105.03c.1 4.01-2.21 6.45-3.99 9.79-1.45 2.69-3.05 5.23-5.04 7.56-1.8-4.83 1.77-7.78 3.76-11.8 1.65-2.36 1.97-5.23 5.27-5.55zM395.98 104.98a55.47 55.47 0 01-1.06 4.59c-.92-.01-1.83-.02-2.75-.04.26-1.13.46-2.35.91-3.42.92-.47 1.88-.85 2.9-1.13zM78.62 105.9c.12 1.45.21 2.89.25 4.35-.67-.46-1.32-.93-1.96-1.41.32-1.16.93-2.04 1.71-2.94zM231.67 106.14c-.11 2.68-.5 6.6-3.41 7.72-2.49-2.45.38-7.24 3.41-7.72zM236.94 107.13c.55.89 2.31 2.29 1.46 3.34-.94 1.95-2.39 2.08-4.32 2.42.8-2 1.79-3.9 2.86-5.76zM277.53 107.74c.92-.26 1.86-.5 2.8-.7-.67 2.18-.68 3.15-2.92 4.09-.01-1.14.03-2.27.12-3.39z" fill="#fff"/><path d="M437.75 106.04c1.79 2.18 3.19 4.58 4.51 7.05-.93.63-1.87 1.26-2.81 1.88-1.09-1.71-2.3-3.46-3.09-5.33-.83-1.4.74-2.51 1.39-3.6zM86.65 109.37c2 2.21.1 3.74-.9 5.82-.76-1.02-1.63-2.03-2.13-3.2.79-1.3 1.34-2.53 3.03-2.62zM181.67 109.48c1.19.07 2.03-.13 2.75 1.03.83.68-.26 2.33-.36 3.24l-2.95-.27c.16-1.33.31-2.68.56-4z" fill="#345858"/><path d="M220.4 109.38c.94-.06 1.61.3 2.01 1.08.09 1.46-1.6 2.69-2.41 3.77-.27-1.77-.63-3.22.4-4.85zM364.36 109.31c3.36 2.36-.4 6.52-2.68 8.03-1.45-3.19-.22-6.28 2.68-8.03zM170.65 114.12c-.06 2.04.44 2.93-1.49 4.17.24-1.9-.8-3.43 1.49-4.17zM274.74 114.18c1.08 2.13-1.08 4.53-2 6.43-2.87 4.47-5.31 10.21-9.56 13.49 1.57-5.62 5.15-10.88 7.87-16.06.99-1.47 1.68-3.6 3.69-3.86zM289.57 115.44c2.63.2 2.57 3.51.04 4.31-1.04-1.83-.76-2.46-.04-4.31z" fill="#fff"/><path d="M134.21 116.31c.33.9.67 1.8 1.01 2.69-1.4 2.17-2.99 4-4.86 5.77-.42-.6-.84-1.21-1.26-1.81 1.36-2.76 2.08-5.32 5.11-6.65z" fill="#345858"/><path d="M281.27 117.77c.93 1.67-1.41 3.28-2.27 4.47.33-1.6-.54-5.53 2.27-4.47zM395.87 116.35c1.75.2 2.4 1.03 1.94 2.48-1.15 2.76-3.23 5.23-5.06 7.56-1.7-3.96 1.13-6.86 3.12-10.04zM247.05 117.61c-.06 2.2-.45 4.01-1.25 6.04-.87-.08-1.75-.16-2.62-.25 1.16-2.02 2.4-3.98 3.87-5.79zM263.77 119.11c-.13 2.7-1.46 7.37-4.66 7.77.04-3.68 1.43-6.04 4.66-7.77zM174.47 119.98c-.17 1.29-.17 2.71-.63 3.93-.84.44-1.71.83-2.6 1.18.69-2.42.18-4.56 3.23-5.11z" fill="#fff"/><path d="M460.3 120.6c.77-.08 1.55-.13 2.33-.16.51 1.36.96 2.75 1.4 4.14-1.28.04-2.55.07-3.83.09.01-1.35-.01-2.72.1-4.07z" fill="#345858"/><path d="M287.53 121.04c.84 2.43-.29 7.49-3.3 7.81-.81-3.11.33-6.36 3.3-7.81zM402.19 122.32c.56.53 1.1 1.08 1.62 1.66a36.338 36.338 0 01-3.43 4.1c-.11-2.58.21-3.73 1.81-5.76zM410.73 122.3c.81.47 1.58 1.03 2.33 1.57-1.17 2.89-2.73 5.5-4.57 8-.48-.69-.95-1.38-1.42-2.07 1.19-2.51 2.3-5.08 3.66-7.5zM275.8 124.44c1.14.73 2.05 1.49 1.38 2.96-1.53 3.22-3.74 6.13-5.48 9.24-1.98 3.11-3.38 6.69-6.64 8.64.32-2.3.9-4.13 2.12-6.1 2.92-4.87 5.48-10 8.62-14.74zM294.35 123.72c-.13 1.93-.2 3.67-1.26 5.35-2.29 3.86-4.62 8.32-8.03 11.27.15-1.77.38-3.42 1.23-5.01 1.8-3.53 3.52-7.13 5.45-10.6.87-.35 1.74-.68 2.61-1.01zM169.93 127.04c.83 3.09-.59 5.18-1.84 7.87-.7-.64-1.4-1.29-2.05-1.98.43-2.59 2.09-4.17 3.89-5.89zM418.59 126.94c.43 3.51.04 3.59-2.68 5.49.15-2.72.8-3.71 2.68-5.49z" fill="#fff"/><path d="M464.12 127.39c.85-.08 1.7-.13 2.55-.16 2.13 2.87 3.69 5.81 4.8 9.22-1.26.13-2.53.26-3.8.38-1.28-2.91-3.99-6.17-3.55-9.44z" fill="#345858"/><path d="M73.45 128c.17.96.33 1.92.47 2.88-1.47 2.74-3.41 5.09-5.67 7.21.09-4.49 1.75-7.34 5.2-10.09zM299.26 129.47c.61.5 1.21 1.02 1.78 1.57-1.43 3.29-2.62 6.38-5.94 8.2-.27-3.84 1.55-7.11 4.16-9.77zM52.43 130.43c.43.43.85.87 1.25 1.34-1.78 3.27-3.33 9.22-7.34 10.2 1.25-4.27 3.47-7.98 6.09-11.54zM257.7 129.81c.26 3.17-.7 5.09-2.31 7.68-.77-.01-1.54-.03-2.32-.04.9-3.08 2.19-5.5 4.63-7.64zM60.94 131.13c-2.28 3.86-3.81 9.27-7.54 11.91-.73-4 2.19-7.31 4.18-10.51.77-1.26 2.07-1 3.36-1.4zM45.98 131.88c-.64 2.86-.88 4.93-3.79 6.28.13-1.43-.34-3.1.76-4.23.92-.84 1.97-1.41 3.03-2.05zM79.15 132.02c-.29 2.55-1.21 4.41-2.68 6.47-2.23 3.07-4.02 6.46-6.42 9.39-1.94-.77-.67-2.63-.07-3.91 2.27-3.84 4.82-7.44 6.78-11.46.8-.18 1.59-.34 2.39-.49zM305.72 133.6c1.35-.63 1.44.69 2.17 1.51-.41 1.28-1.88 4.26-3.36 4.25-2.02-1.15.37-4.48 1.19-5.76zM423.93 133.75c.09 3.3-.08 4.23-2.55 6.34-.26-3.38-.58-4.55 2.55-6.34zM83.81 134.7c-.33 1.12.9 5.82-1.39 4.78-.78-2.44-.2-3.08 1.39-4.78zM279.71 135.2c1.14 2.38-.47 3.93-1.51 5.94-1.6 2.44-2.43 4.91-5.34 6.09 1.04-3.74 2.89-7.28 4.81-10.64.37-.85 1.05-1.31 2.04-1.39z" fill="#fff"/><path d="M371.41 135.62c1.2-.19 2.4-.33 3.61-.43-.19 2.84-.2 5.23-3.14 6.6-1.77-1.87-1.53-4.02-.47-6.17zM217.46 138.42c2.05-.39 1.74 1.8 2.35 3.12l-3.4.06c.33-1.07.63-2.14 1.05-3.18z" fill="#345858"/><path d="M261.62 139.4c-.56 2.75-1.54 3.95-4.27 4.66.44-1.6.71-3.68 1.79-4.99.73-.99 1.78-.33 2.48.33zM312.99 137.03l1.61 1.42c-.75 4.26-4.2 8.11-5.88 12.11-1.8 4.22-3.65 8.18-6.01 12.12-1.25 1.84-.28 3.28.17 5.19 6.97-4.32 7.49-11.87 13.33-16.93 1.83 6.5-6.25 10.51-4.58 16.51 1.08-.05 2.16-.11 3.23-.16 2.27-4.5 4.76-8.88 7.07-13.37.97-1.94 2.25-2.48 4.21-3.19-.98 6.62-5.84 12.52-8.6 18.6.87.91 1.73 1.83 2.59 2.75 3.12-3.86 4.47-8.36 7.92-11.74l1.7.41c-1 3.14-2.74 5.84-4.07 8.82-.75 1.56-.44 3.19.38 4.65 4.5-1.83 5.57-9.06 8.87-12.44l2.8-.49c-1.24 4.96-3.8 8.83-6.13 13.36-2.22 4.13-4.89 7.57-8.43 10.65-1.11-1.4-2.19-2.88-3.46-4.14-2.01-1.89-5.01-2.65-7.13-4.25-1.09-1.38-1.98-2.93-3.13-4.25-5.08-.62-7.61 3.89-12.41 4.81-3.05.52-7.58 2.03-10.06-.47-3.49-3.26-7.27-6.06-10.41-9.66.33-.57.66-1.14.98-1.72-.47.41-.95.81-1.42 1.21-.69-1.73-2.4-2.48-.83-4.27 2.8-.3 5.64-.21 8.45-.28-.41-.43-.83-.86-1.25-1.29.81-1.48 1.6-2.96 2.38-4.45h2.07c-.31 2-.89 3.86-1.57 5.76-.81 1.53.95 2.66 1.59 3.88 1.94-2.47 3.3-5.39 5.33-7.77l1.49-.21c1.01 2.2-.38 4.51-.87 6.71l2.26 2.05c4.12-5.67 6.76-12.3 10.53-18.23 2.5-3.82 4.24-8.37 7.28-11.7zM40.46 139.19c.74 1.18 1.56 2.13 1.19 3.63-.66.8-1.38 1.51-2.11 2.24-.2-1.03-.39-2.06-.57-3.09.47-.95.96-1.88 1.49-2.78z" fill="#fff"/><path d="M106.91 140.19c-.35 2.17-.64 3.3-2.23 4.84-.43-1.03-.8-2.07-1.1-3.13-.18-1.72 2.24-1.21 3.33-1.71z" fill="#345858"/><path d="M252.02 141.95c.2 3.62-1.33 5.4-4.02 7.49.2-1.44.01-3.31.74-4.61.94-1.09 2.15-2.01 3.28-2.88zM78.9 142.28l1.54.34.22 1.32c-2.13 5.46-5.27 10.59-8.07 15.75-.87 1.75-2.15 2.33-3.9 3.03 1.69-4.85 4.21-9.04 6.45-13.62 1.16-2.3 2.29-4.72 3.76-6.82zM320.77 143.19c-.04 1.12-.09 2.24-.15 3.36-.87.03-1.74.07-2.61.1.19-.97.4-1.94.62-2.91.71-.19 1.43-.37 2.14-.55zM51.41 144.54c2.12-1.05 3.12 3.25.59 2.99-2.28-.04-2.25-2.02-.59-2.99zM300.37 144.4c1.36-.11 1.86.46 2.42 1.61-.63 1.4-1.7 2.81-3.39 2.7-.26-1.83-.36-2.89.97-4.31zM281.67 145.72c1.32-1.41 2.19 1.11 2.19 2.17-1.05 1.34-1.8 1.97-3.59 1.85-.28-1.62.04-3 1.4-4.02zM293.45 145.88c-.06.95-1.04 3.3-2.31 2.6-1.35-1.81.19-4.54 2.31-2.6z" fill="#fff"/><path d="M394.41 145.35c.68.72 1.49 1.48 1.5 2.54-.82 1.7-2.34 1.42-3.91 1.96.37-2.3.11-3.34 2.41-4.5z" fill="#345858"/><path d="M441.86 144.75c.24 3.51-.04 4.11-2.54 6.36-.39-.99-.73-2-1.02-3.03.7-1.41 2.33-2.39 3.56-3.33zM37.86 146.04c-.14 1.6.56 4.36-1.69 4.67-1.42-2.59.08-2.89 1.69-4.67zM85.66 146.18c-.56 2.57-1.43 4.48-2.94 6.64-2.93 4.22-4.61 8.98-7.79 13.01-.03-5.33 3.27-8.81 5.54-13.39 1.56-2.49 2.05-5.46 5.19-6.26zM185.94 145.97c-.59 2.32-.64 3.15-2.93 4.21.35-2.88.02-3.3 2.93-4.21z" fill="#fff"/><path d="M228.48 146.38c.2 1.16.3 2.31.29 3.47-.67 1.64-2.2 1.36-3.66 1.91.31-2.35-.07-5.95 3.37-5.38zM160.37 149.41c1.71.08 1.98-.03 2.67 1.71-.33 1.61-1.56 4.35-3.44 4.5-.91-2.44-.93-4.15.77-6.21z" fill="#345858"/><path d="M67.71 150.84c.17 3.47.04 3.75-2.77 5.63.29-2.85.21-4.09 2.77-5.63zM269.54 151.23c1.14.39 1.75.85 2.42 1.86-.88 2.01-1.12 3.12-3.66 2.53-.35-1.7.49-2.94 1.24-4.39z" fill="#fff"/><path d="M122.79 151.33c.89.51 1.77 1.03 2.65 1.58-2 2.91-3.24 8.31-7.53 8.05 1.03-3.52 2.49-6.82 4.88-9.63z" fill="#345858"/><path d="M341.7 152.03c-.06 1.48-.12 2.96-.2 4.44l-3.44.03c.28-1.09.19-2.63.95-3.5.88-.36 1.78-.68 2.69-.97z" fill="#fff"/><path d="M110 153.59c2.26-.07 1.14 2.67 1.02 4.02-.87-.08-1.75-.17-2.63-.25-.19-1.68-.7-3.56 1.61-3.77z" fill="#345858"/><path d="M437.14 151.6l1.21 2.45c-1.54 4.44-4.45 8.44-6.65 12.6-3.26 4.96-5.58 10.4-8.8 15.38-1.16-1.06-1.62-2.06-1.38-3.02 4.65-9.39 9.69-18.76 15.62-27.41zM444.95 152.88c1.09 3.3-.66 5.3-2.09 8.11-.63-.63-1.26-1.27-1.9-1.9.45.89.91 1.79 1.36 2.68-3.22 5.08-6.03 10.43-8.8 15.76-.88.06-1.77.12-2.66.17 2.58-7.68 7.12-14.84 11.11-21.86.82-1.53 1.51-2.09 2.98-2.96z" fill="#fff"/><path d="M165.33 154.53c.96.48 1.88 1.08 2.79 1.66-.65 1.38-1.31 2.71-2.24 3.93-1.11.19-2.22.35-3.34.47.35-2.58.72-4.35 2.79-6.06zM413.16 154.74c1.12-.31 2.22-.4 3.32-.28.38 1.21.31 2.51-.2 3.89-1.13.17-2.26.31-3.39.44l.27-4.05z" fill="#345858"/><path d="M87.86 156.2c-.8 2.42-1.8 4.22-3.61 6.02.03-1.5-.15-3.04.42-4.47.49-1.95 1.64-1.21 3.19-1.55zM199.81 156.95c-.76 2.51-.98 4.21-3.77 5.12.87-2.28 1.15-4.28 3.77-5.12zM366.66 156.92c.64 3.69-1.56 5.78-3.15 8.81l-2.33-.27c1.46-3.25 2.1-6.77 5.48-8.54zM451.91 158.05c-.34 2.76-1.17 4.79-2.87 6.99-1.12 1.51-2.33 2.38-2.92-.09.88-3.38 1.76-6.55 5.79-6.9zM91.91 158.77c0 1.33-.09 2.64-.26 3.95-.79.88-1.67 1.62-2.57 2.38-.1-2.77 1.17-4.32 2.83-6.33zM373.71 160.15c-.51 2.91-.93 4.37-3.49 6.05.02-1.47-.32-3.38.45-4.7.55-1.3 1.85-.96 3.04-1.35zM97.74 161.22c.43.66.86 1.32 1.27 1.99-.86 1.78-1.86 3.52-2.81 5.26l-1.93.03c1.05-2.48 2.14-4.93 3.47-7.28zM470.13 161.03c-.51 4.39-2.87 7.53-4.69 11.42-1.31 2.7-2.91 5.2-4.68 7.62-1-1.95-1.17-2.64-.27-4.64 2.11-4.71 4.59-9.5 7.27-13.91.79-.17 1.58-.34 2.37-.49zM482.77 161.91c.01 1.27.02 2.55.01 3.83-.9-.08-1.81-.18-2.71-.28.5-2.2.43-2.73 2.7-3.55zM203.25 162.57c-.39 2.69-.63 3.95-2.94 5.48.37-2.53.51-4.13 2.94-5.48zM208.9 162.9c-.54 3.83-2.59 6.56-4.51 9.78l-.93-1.77c1.36-3.13 2.44-6.06 5.44-8.01zM378.88 163.58c1.04-.19 2.1-.33 3.16-.42-1.05 2.46-2.61 7.2-5.7 7.55-.33-2.52 1.23-5.09 2.54-7.13zM474.89 161.82c2.86 1.35 1.03 3.33.27 5.34-2.05 3.93-3.61 8.06-7.32 10.69 1.05-5.67 4.33-11 7.05-16.03zM498.73 163.21c.45.69.9 1.38 1.33 2.09-.82 1.31-1.71 2.57-2.66 3.8-.31-2.42.18-3.83 1.33-5.89zM194.99 163.73c1.17 3.93-1.35 6.04-3.01 9.26-1.65 2.37-2.16 5.14-5.35 5.76 1.98-5.37 4.98-10.42 8.36-15.02zM344.05 163.86c.19 2.11.81 3.89-.38 5.83-2.36 4.36-5.36 8.19-7 12.95-.92.03-1.85.07-2.77.1.06-3.25.48-5.68 2.57-8.27 2.91-3.54 3.79-7.76 7.58-10.61zM213.72 164.98c.18 3.08-1.31 5.35-2.53 8.04a28.44 28.44 0 01-1.48-1.64c-.28-2.62 2-5.03 4.01-6.4zM505.61 164.89c.94 4.05-1.41 6.48-3.82 9.32-1.54-3.8 1.69-6.6 3.82-9.32zM238.76 165.91c-.49 2.83-.84 5.1-3.7 6.45.18-1.33-.22-3.43.92-4.39.86-.78 1.81-1.41 2.78-2.06z" fill="#fff"/><path d="M118.42 167.12c1.07.45 2.14.89 3.19 1.36-.15.87-.34 1.72-.58 2.57-.99.28-2 .5-3.02.67.08-1.53.24-3.06.41-4.6zM290.58 167.56c1.05.11 2.03.33 2.92.91.48 1.73-1.31 4.16-3.12 4.12-1.45-1.77-.44-3.15.2-5.03z" fill="#345858"/><path d="M71.58 168.82c.84-.27 1.69-.51 2.54-.72-.74 1.66-1.51 2.77-2.86 3.97.05-1.09.15-2.17.32-3.25zM229.51 166.87c.07 4.48-2.41 7.47-4.61 11.12-.68 1.15-1.68 1.54-2.86 2.02-.54-1.63.55-3.26 1.18-4.72 1.78-3.32 2.68-6.57 6.29-8.42zM481.04 168.23c-.86 3.82-2.84 6.98-5.29 9.99-1.43-3.03.26-5.45 1.45-8.22.64-1.75 2.32-1.26 3.84-1.77zM512.7 168.16c-1.92 4.23-4.15 8.28-6.41 12.33-.74.01-1.47.02-2.21.02.79-4.3 3.25-7.45 5.48-11.09.69-1.34 1.87-.94 3.14-1.26zM100.1 168.75c-.14 4.07-2.43 6.74-4.39 10.07-.43-.56-.85-1.12-1.28-1.68 1.64-3.05 3.05-6.03 5.67-8.39zM198.65 170.09c.14.94.26 1.89.37 2.83-1.1 1.96-2.47 3.7-4 5.33.05-4.01.85-5.43 3.63-8.16zM518.78 170.78c.29 1.49.63 2.89.65 4.42-1.15.28-2.3.52-3.47.73.08-1.21.22-2.41.42-3.6a29.8 29.8 0 012.4-1.55zM373.58 172.49c.59.25 1.17.52 1.74.81.15.79.29 1.57.42 2.37-.91-.05-1.81-.11-2.71-.17.15-1.01.33-2.01.55-3.01zM203.51 173.89c-.26 3.28-1.94 5.13-4.31 7.2.35-3.53 1.14-5.44 4.31-7.2zM102.22 173.83c1.92 4.23-1.39 6.77-3.08 10.39-1.53 2.18-2.96 6.12-5.89 6.48 2.03-6 6.02-11.27 8.97-16.87zM208.06 174.56c1.49.63 1.8 2.92-.06 3.24-1.96-.33-1.33-2.57.06-3.24zM232.97 175.01c-.56 2.82-.85 5.07-3.93 6.08.57-2.89.56-5.26 3.93-6.08zM106.94 180.15c-1.15 2.85-2.66 7.91-6.13 8.51 1.37-2.79 2.38-8.25 6.13-8.51zM467.02 180.42c1.19 1.07.18 4.05-1.6 3.02-1.33-1.11-.09-3.7 1.6-3.02zM193.91 180.93c-1 2.58-2.34 4.99-3.86 7.3-.15-3.48.26-6.06 3.86-7.3zM183.52 182.6c.9-.19 1.8-.35 2.71-.48-.75 1.44-1.61 2.71-2.64 3.96-.07-1.16-.09-2.32-.07-3.48zM228.6 182.85c.06.98.1 1.96.13 2.94-1.13 1.34-2.34 2.59-3.56 3.87l-.75-2.31c1.13-1.93 2.05-3.55 4.18-4.5zM110.8 183.58c-.24 3.42-.39 5.25-3.81 6.69.48-3.3.95-4.8 3.81-6.69zM116.92 183.86c-.72 2.98-1.63 5.76-4.53 7.27.73-3.33 1.47-5.45 4.53-7.27zM421.32 184.05c-1.07 1.5-.63 3.66-3.08 2.61-.4-3.01.81-1.91 3.08-2.61zM156.57 187.56c-.83.55-1.69 1.06-2.57 1.53.14-1.19.34-2.36.62-3.52 1.49-.63 2.08.72 1.95 1.99z" fill="#fff"/><path d="M135.86 186.64c.59.31 1.18.64 1.77.98-.89 2.18-1.77 3.1-3.82 4.22-.34-1.36-.66-2.72-.98-4.08 1.01-.38 2.01-.77 3.03-1.12z" fill="#345858"/><path d="M180.98 187.65c1.05 1.66 1.08 5.49-1.68 4.96-1.76-2.06.64-3.24 1.68-4.96zM120.18 188.8c-.73 3.27-2.68 6.08-4.21 9.17-1.27 1.81-1.43 4.04-4.15 3.42 1.68-3.47 3.3-7.04 5.36-10.31.7-1.22 1.84-1.6 3-2.28zM186.32 190.2c2.35 1.32 1.23 4.33-1.1 4.55-.29-1.72.35-3.07 1.1-4.55zM223.62 189.67c.14 1.41.2 2.82.18 4.23-.97.48-1.96.92-2.98 1.31.56-2.26 1.31-3.78 2.8-5.54zM111.28 192.22c1.12.74 1.26 1.82 1.67 3.01l-3.22.24c.44-1.13.87-2.24 1.55-3.25zM151.52 191.88c.05.94.07 1.87.05 2.81-1.71 3.38-4.02 6.59-6.89 9.1.44-3.77 2.19-6.64 4.64-9.43.72-.84 1.45-1.66 2.2-2.48z" fill="#fff"/><path d="M65.5 198.48c1.03-.15 2.07-.24 3.12-.29.81.89 1.6 1.81 2.38 2.72l3.03-.54c-1.94 1.85-4.02 3.31-6.35 4.63-.88-2.16-1.78-4.21-2.18-6.52z" fill="#345858"/><path d="M117.19 199.46c1.06.19 2.12.42 3.16.68-.87.97-1.62 1.97-2.81 2.56-.18-1.08-.29-2.16-.35-3.24z" fill="#fff"/><path d="M27.2 207.57c1.65-.43 1.56 2.47-.05 2.07-.69-.68-.67-1.37.05-2.07zM295.25 210.26c.53.54.53.54 0 0zM38.24 215.26l.52.01v.51h-.52v-.52z" fill="#345858"/></svg>