<svg xmlns="http://www.w3.org/2000/svg" viewBox="0 0 848.71 798.08"><defs><style>.cls-1{fill:#fff}.cls-3{fill:#231f20}</style></defs><g id="Layer_2" data-name="Layer 2"><g id="Layer_2-2" data-name="Layer 2"><path class="cls-1" d="M424.36 755.5c-70-11.42-128.58-31.07-174-58.42-38.3-23-68.22-52.13-88.95-86.5-39-64.73-39-135.92-39-178.46V171l302-125.54L726.4 171v261.1c0 42.54 0 113.73-39 178.46-20.72 34.37-50.65 63.47-88.94 86.5-45.53 27.37-104.08 47.02-174.1 58.44z"/><path d="M424.36 68.22L705.4 185v247.12c0 40.35 0 107.89-36 167.61-18.94 31.41-46.46 58.1-81.79 79.35-42.08 25.31-96.37 43.74-161.46 54.83l-1.76-.44-1.76.44c-65.1-11.09-119.39-29.52-161.47-54.83-35.33-21.25-62.85-47.94-81.79-79.35-36-59.72-36-127.26-36-167.61V185l281-116.81m0-45.48L101.32 157v275.12c0 95.82 4.49 294.12 323 344.64h.06c318.51-50.52 323-248.82 323-344.64V157l-323-134.26z" fill="#86ad7b"/><path class="cls-3" d="M422.7 798.08l-2.79-.76c-76.33-12.22-140.67-33.83-191.25-64.25-44.22-26.6-79-60.51-103.26-100.8C80.32 557.54 80.32 476 80.32 432.12V143l344-143 344 143v289.12c0 43.83 0 125.42-45.08 200.15-24.3 40.29-59.05 74.2-103.26 100.8-50.61 30.43-115 52-191.36 64.27l-2.77.72-1.55-.17zM122.32 171v261.1c0 89.09 0 274.14 302 323.38 302-49.24 302-234.29 302-323.38V171l-302-125.54z"/><path class="cls-1" d="M837.71 426.4L11 531.4v-180l826.71-105v180z"/><path class="cls-3" d="M0 543.88V341.71l848.71-107.8v202.18zm22-182.79v157.82l804.71-102.2V258.88z"/><path class="cls-3" d="M758.54 194.54l90.17 39.37-90.17 12.49v-51.86zM89.47 584.97L.4 543.76l89.07-10.65v51.86z"/><path class="cls-3" d="M111.47 595.44L0 543.88l87.88-18.91 23.59 70.47z"/></g></g></svg>